<svg id="Layer_1" data-name="Layer 1" xmlns="http://www.w3.org/2000/svg" viewBox="0 0 64 64"><defs><style>.cls-1{fill:#dfe8f4;}.cls-2{fill:#ccd8e5;}.cls-3{fill:#0795ff;}.cls-4{fill:#156cdd;}.cls-5{fill:#fff;}</style></defs><title>medical, medicine, healthcare, health, laboratory</title><path class="cls-1" d="M50.7,44.7l-7-7a18.4,18.4,0,0,1-5.39-13V13.25H25.69V24.69a18.4,18.4,0,0,1-5.39,13l-7,7A6.62,6.62,0,0,0,18,56H46A6.62,6.62,0,0,0,50.7,44.7Z"/><path class="cls-2" d="M46.79,44.7l-7-7a18.36,18.36,0,0,1-5.39-13V13.25H25.69V24.69a18.4,18.4,0,0,1-5.39,13l-7,7A6.62,6.62,0,0,0,18,56H42.11A6.62,6.62,0,0,0,46.79,44.7Z"/><rect class="cls-1" x="23.31" y="8" width="17.37" height="5.25" rx="1.97"/><path class="cls-3" d="M50.7,44.7l-5.44-5.44a3.37,3.37,0,0,0-.6.23,12,12,0,0,1-11.06,0,3.42,3.42,0,0,0-3.2,0,12,12,0,0,1-11.06,0,3.37,3.37,0,0,0-.6-.23L13.3,44.7A6.62,6.62,0,0,0,18,56H46A6.62,6.62,0,0,0,50.7,44.7Z"/><path class="cls-4" d="M46.79,44.7l-4.34-4.34a11.81,11.81,0,0,1-8.85-.86,3.42,3.42,0,0,0-3.2,0,12,12,0,0,1-11.06,0,3.37,3.37,0,0,0-.6-.23L13.3,44.7a6.66,6.66,0,0,0-1.62,2.59,6.45,6.45,0,0,0-.28,2.82,6.75,6.75,0,0,0,2,4.11,5.3,5.3,0,0,0,.73.6,6.45,6.45,0,0,0,1.74.87A6.89,6.89,0,0,0,18,56H42.11A6.62,6.62,0,0,0,46.79,44.7Z"/><rect class="cls-5" x="28.8" y="16.69" width="1.84" height="1.47"/><rect class="cls-5" x="28.8" y="19.89" width="3.69" height="1.47"/><rect class="cls-5" x="28.8" y="22.95" width="1.84" height="1.47"/><rect class="cls-5" x="28.8" y="26.15" width="3.69" height="1.47"/><rect class="cls-5" x="28.8" y="29.22" width="1.84" height="1.47"/><rect class="cls-5" x="28.8" y="32.42" width="3.69" height="1.47"/><rect class="cls-5" x="28.8" y="35.48" width="1.84" height="1.47"/><rect class="cls-2" x="25.69" y="13.25" width="12.62" height="1.41"/></svg>