<svg xmlns="http://www.w3.org/2000/svg" viewBox="0 0 512 512"><title>Artboard 130</title><g id="Language"><path d="M256,469.33333C138.36458,469.33333,42.66667,373.63542,42.66667,256S138.36458,42.66667,256,42.66667,469.33333,138.36458,469.33333,256,373.63542,469.33333,256,469.33333Zm0-384c-94.10417,0-170.66667,76.5625-170.66667,170.66667S161.89583,426.66667,256,426.66667,426.66667,350.10417,426.66667,256,350.10417,85.33333,256,85.33333Z" style="fill:#dae0ff"/><path d="M256,469.33333c-60.8125,0-106.66667-91.70833-106.66667-213.33333S195.1875,42.66667,256,42.66667,362.66667,134.375,362.66667,256,316.8125,469.33333,256,469.33333Zm0-384c-26.09375,0-64,66.48959-64,170.66667s37.90625,170.66667,64,170.66667S320,360.17708,320,256,282.09375,85.33333,256,85.33333Z" style="fill:#dae0ff"/><circle cx="202.66667" cy="96" r="32" style="fill:#b8c2ff"/><circle cx="170.66667" cy="234.66667" r="21.33333" style="fill:#b8c2ff"/><circle cx="341.33333" cy="277.33333" r="21.33333" style="fill:#b8c2ff"/><circle cx="298.66667" cy="426.66667" r="21.33333" style="fill:#b8c2ff"/><path d="M256,362.66667C134.375,362.66667,42.66667,316.8125,42.66667,256S134.375,149.33333,256,149.33333,469.33333,195.1875,469.33333,256,377.625,362.66667,256,362.66667ZM256,192c-104.17708,0-170.66667,37.90625-170.66667,64S151.82292,320,256,320s170.66667-37.90625,170.66667-64S360.17708,192,256,192Z" style="fill:#dae0ff"/><circle cx="416" cy="309.33333" r="32" style="fill:#b8c2ff"/><path d="M221.32422,178.65625A105.47011,105.47011,0,0,0,234.66667,128,106.66667,106.66667,0,1,0,128,234.66667a105.48008,105.48008,0,0,0,50.65755-13.34375l4.50651,4.50651a30.16746,30.16746,0,0,0,42.66537,0h.0013a30.17139,30.17139,0,0,0,0-42.66667Z" style="fill:#079cff"/><path d="M128,42.66667A85.43105,85.43105,0,0,0,42.66667,128l.00008.119,0,.01025.00024.11312.00005.01579.0004.11035.00008.01823.00056.11084.00009.01448.00075.11491.00005.007.00093.11654.00005.00569.0011.11622.00011.012.0012.11035.00023.0197.00137.11035.00018.01432.00156.11279.00019.01351.00177.11621,0,.00277.002.11865.00011.00651.0021.11524.00023.01286.00216.10986.00041.02034.00227.10775.00039.01823.00245.10872.00043.0184.0027.113,0,.00147.003.11784.00023.00895.003.1123.00046.0166.00305.10791.0006.02084.00316.106.00062.02051.00339.10856.00049.01514.00358.1097.0004.01188.00359.10547.00063.01807.00373.10465.00087.02425.0039.10531.00071.019.00416.10824.00072.0179.00436.10938.00062.01513.00447.10824.00037.00879.00478.11165.00066.01514.00484.10937.00082.01823.00484.1058.001.02262.005.10531.00092.019.00536.11019.0004.0083c.00385.0778.00777.155.01182.23258l.00083.016.00577.10889.001.01758.00584.10742.00109.01953.00605.1084.00082.01432.00645.11263.00055.00928.00649.11035.00057.00977.00674.112.00092.015.00675.10938.00107.01725.00685.1084.0011.01709.00711.11.0008.01221.0076.11507.0002.00309.00752.11117.001.01465.00729.10595.00154.022.00733.104.00153.02165.00761.10579.00126.01742.00809.11019.00079.01058.00853.11409.00026.00342.0088.1154.00082.01074.00836.10758.00167.02116.00835.10563.00152.019.00848.10514.00167.02035.00894.109.00059.007.00946.11328.00057.00684.00934.10986.0015.01758.00905.10466.00192.022.00927.10547.00154.01741.00954.10677.00174.01921.00975.10742.00121.013.00937.10157.00154.01676.01.10677.00169.01807.01006.10547.00194.02034.01015.105.00186.019.01045.10645.00158.01611.01117.11214,0,.00033.012.11914.00048.00472.0117.1141.0012.01171.01131.10873.00186.01774.01126.10677.00182.01725.01155.10791.00148.01384.012.11084.00065.006.0118.10742.00186.01693.01185.10644.002.01791.01188.1053.00217.019.01218.10677.00177.01546.01242.10726.002.01741.01241.106.00062.00521.01287.10856.0022.01856.01261.105.00224.01855.01264.10417.00264.02148.01277.10384.00212.01709.0134.10775.00161.0127.01348.10709.001.00781.01391.10938.00213.0166.01352.10482.00254.01969.01353.10384.00259.0197.01391.10563.00193.01448.01468.11019.001.00765.01437.10661.00171.0127.01437.10563.00268.01953.01436.10433.00256.01855.01436.10319.003.02133.01477.10514.00177.01237.01587.11181.00075.00521.01549.10791.002.01368.01518.10481.003.02035.01529.10449.00249.01693.0154.104.003.02051.01571.10514.00181.01205.01634.10839.00085.00554.01749.11491.001.00635.017.11051.00222.01432.01651.10645.00271.01725.01623.10368.00325.02051.01644.10384.00221.014.01659.10384.00156.00976.01709.106.003.01872.01642.10091.00385.0236.01649.10042.00327.01986.01729.10433.00252.01513.018.10759.00186.01107.01717.10172.00234.014.01775.10433.00325.019.01754.10238.0034.01969.01775.10254.00342.01969.01785.10238.00329.01872.01859.10563.00154.00863.01827.103.00269.01514.01912.10677.0025.014.01876.10384.00365.02018.01856.102.00344.01888.01891.103.00319.01725.01936.10482.00115.00619.01924.10319.00363.01953.019.10107.00388.02067.01879.09912.00456.02409.01886.0988.00383.02.01966.10221.00334.01725.01912.09864.00252.013.01974.10107.00415.02116.01956.09945.00433.022.01953.09847.00474.02392.01982.09913.00377.01888.02107.10465.00176.00863.02164.10677.00164.00814.02208.10807.00269.01318.02139.104.00389.01871.02089.10092.00433.02083.02084.09977.0043.02051.02135.10156.00291.01384.0207.09781.00325.0153.02169.10173.00426.01986.02157.10058.00428.01986.0217.10042.00419.01921.02257.10368.00251.01139.024.10954.00089.00407.02341.10612.00287.013.02235.10058.00509.02279.022.09847.0045.02018.02265.10059.00428.01888.02334.103.00265.01155.02381.10433.00188.0083.02446.10645.003.01285.02364.10238.00473.02035.02263.09733.00554.0236.0225.09619.00568.02409.02322.09847.00327.01383.02368.09994.0025.01041.02476.10368.00407.01709.02369.09863.0056.02328.02348.097.0051.02116.02422.09945.00423.01742.0254.10367.00239.00977.02419.09814.00408.01661.02512.10139.00433.01742.02477.09928.00526.02116.02486.09912.00473.01872.02532.10042.0042.01644.02674.10547.0006.00228.02719.10645.00309.0122.02706.10531.00325.01253.0261.10108.00552.02132.02553.09814.00484.01856.0262.10026.0045.01709.02647.10075.00188.007.0267.10108.005.01872.02609.09814.00546.02051.02594.09684.006.02246.02587.096.00573.02132.02678.099.00411.01514.02579.09472.00417.0153.02684.09815.00539.01953.02622.09538.00692.02506.02555.09229.00724.0262.02583.09277.00682.02442.02663.09521.00529.01888.025.08871.00526.01872.0267.0944.00722.02539.02651.09326.0069.02425.02632.09212.00777.027.027.09391.00543.01872.02893.1001.00327.01139.02864.09847.00325.01123.02931.10026.0056.01921.0282.096.00662.02246.02761.09359.00743.02506.0283.09538.00453.0153.0297.09961.00355.01188.02955.09847.00432.01448.02981.099.00585.01937.02943.09717.00583.0192.03016.099.00458.015.03128.10237.00335.01091.03117.10124.00215.007.03261.10564.00335.01074.032.103.00419.0135.0318.10189.00448.01433.03165.10074.00475.01514.03231.10254.00272.00863.03228.10188.00266.0083.03265.10254.00474.015.03085.09635.00706.022.031.09652.00532.01644.03247.10059.00387.01188c.023.07112.04633.14274.06955.2137l.00271.0083.03357.10238.0046.01416.03189.09668.00723.022.03111.09408.00682.02051.03151.09472.00686.02067.03135.09375.00485.01449.0314.09359.00561.01676.03255.09652.00645.019.03249.09587.00659.01953.03276.09619.00591.01741.03358.09815.0048.014.03478.10123.00085.00244.03491.10124.00568.01644.0336.09684.0063.01823.03315.09522.007.02.03338.09537.00627.01791.03459.0983.00379.01091.03655.10351.00076.00212.036.10156.0058.01628.03414.09586.007.0197.03272.09147.00915.02555.03347.0931.00539.015.03587.09928.00409.01139.03547.09782.00286.008.03619.09928.006.0166.036.09847.00484.01319.03627.09879.0061.0166.036.0975.00513.014.03679.09929.00426.01139.03577.09619.00393.01058.03665.098.00662.01775.03548.09456.00727.01937.03548.09407.007.01856.03626.0957.00546.01449.03714.09765.003.00782.03615.09472.00685.01791.03464.09049.00974.02523.03456.08984.00835.02165.03558.09212.0077.01986.03713.09554.00455.01172.03719.09554.00421.01074.03858.09847.00533.01367.03824.09733.006.01514.03865.098.00533.01351.03844.097.00657.0166.03871.09717.00377.00944.03878.09716.00351.00879.04.09961.0052.01286.038.09424.00833.02067.03741.09261.00733.01807.03865.09521.00588.01432.04006.09831.00348.00863.03843.09375.00587.01448.039.09473.007.01693.03885.09423.00742.01791.03954.09554.00528.01269.0414.09945.00357.00863c.02949.0708.05833.13965.088.21045l.00169.0039.0423.10059.0054.01286.04086.09668.006.01416.04211.09928.00331.00781.04352.10222.00306.00716c.02909.06819.05879.13753.088.20556l.00488.0114.04219.098.00552.01286.04117.09521.00735.01693.04113.09473.0058.01334.04205.09652.00554.01269c.02964.06788.05791.13249.08772.2002l.00553.01253.04194.09522.00693.01578.04129.09327.00763.01725.04245.09554.00418.00944.045.10107.00206.00456.04487.10042.0028.00619.04292.09554.00777.01725.04251.0944.00594.01319.04363.09635.00578.01286.04429.09749.00394.00863.04618.1014.00107.00228.04623.10107.00313.00684.04417.09619.00709.01546.04262.09245.008.01741.04168.09017.0096.02067.04216.091.00649.01383.04477.09619.00115.00244.0474.1014.00358.00765.04477.09538.00752.01595.0441.09359.00634.01351.0449.09505.00615.01286.0464.09782.00176.00374.04748.09977.00281.00586.04733.09912.00437.00912.04574.09538.007.01464.04595.09554.00461.00944.04708.09766.00532.01091.04755.09814.00207.00423.04841.09961.0025.00505.047.09619.00666.01367.04435.0905.01.02034.04289.08724.01009.02051.04376.0887.0082.0166.04635.09375.00266.00521.04734.09538.00443.00895.04737.09505.00663.01319.04644.09293.00734.01465.04648.09261.00723.01433.04638.09212.00706.014c.03324.06591.06527.12906.09868.195l.005.00993.04863.09554.00566.01107.048.09407.00668.013.04918.096.00324.00619.051.09912.00339.00667c.03378.0656.06726.13037.1012.1958l.00716.01384.04847.09326.006.01156.04857.09326.00721.01383.0482.09212.00677.013.04983.09488.00309.00586.05084.09668.00258.00489.051.09668.00535.01009.04879.09212.00836.01562.04785.09.00816.0153.0489.09164.00569.01074.10714.1997.00082.00163.05274.09782.00463.00863.05171.09554.005.00927.05174.09538.00477.00879.05266.09668.00326.006.05412.09912.00063.00114.05393.09847.00327.006.05156.09375.007.01285.0511.09261.006.01075.05076.09179.00791.01433.05143.09261.00326.00586q.05546.09986.1112.19938l.00182.00325.05281.09424.00726.013.05165.0918.00606.01074.05233.09278.00622.01106.05372.09489.00172.00309.05544.09766.00207.00358.05472.096.00466.0083.0532.0931.00642.01123.05282.09212.0063.01091.05312.09245.00594.01025c.0563.09782.11337.19645.17005.29394l.00458.00782.05339.09163.00758.013.05269.09017.00721.01237.05353.09131.00546.00928c.03722.06347.07505.1276.11243.19092l.00509.00862.05507.0931.00548.00928.05429.09147.007.01188.0539.0905.007.01171.05406.0905.00618.01025c.03774.06315.07447.12435.11237.18734l.00654.01091.05366.089.00833.01367.05211.08626.01059.01742.05285.08724.00684.01123.05642.09261.00242.00407.05947.09733.00011.00032.05692.09294.00685.01107.05572.09082.006.0096.05562.09033.00784.0127.05486.08886.00681.01091.05686.09179.00286.00456.05983.09619.00015.00033.06023.09652.003.00472.05816.0931.00569.00895.05669.09033.00709.01139.05744.09115.00348.00553c.06.09522.12168.19271.18209.2876l.00693.0109.05783.09082.005.00782.05853.09147.00542.00846c.08179.12777.166.25863.24844.38591l.00464.00716.05969.092.00459.00716.05864.09.0079.0122.05865.08985.00232.00358c.04282.06543.083.12679.126.19222l.00173.0026.06115.09278.005.00765.06.091.0052.00781.06084.0918.00342.00521.06274.0944.00017.00032.12746.19092.0042.00635.06127.09131.00457.00683.0614.09131.00449.00667.06317.09375h.0001c.06567.09734.1308.19336.19685.29021l.0011.00162.06335.09294.00447.00651.06377.0931.00085.0013c.11053.1613.21937.319.331.47949l.00348.00489.06369.09147.00383.00553.0638.09131.00349.005.13214.18831.00029.00049.06587.09342.00272.00391.06479.09163.00365.00521c.09031.12761.17738.24984.26837.377l.00255.00358.06565.09148.00314.00439.066.0918.00238.00325c.09133.12679.1802.24951.27221.37582l.00244.00341.06651.09115.00326.00456.06415.08756.00786.01074.06412.08741.00236.00325c.06939.0944.13543.18392.20519.27816l.00324.00439.06719.0905.00257.00342.06751.09065.003.00407c.09335.12517.184.2461.278.37093l.00236.0031.06851.09082.00215.00276.06893.09115.0017.00212c.09436.12451.18655.24544.28157.36946l.0025.00326.06983.09082.001.0013.07091.09212.00007.00017c.09535.12369.1896.24511.28561.36832l.00256.00326.07071.09049.00047.00065.07173.09164.00057.00065c.07226.09228.14416.18359.21679.27539l.00026.00032.07043.08887.00409.00521.07087.08919,0,.00017c.07288.09163.14478.18164.218.27294l.00169.00212.071.08838.003.00374.07084.08789.00293.00358.07159.08871.0011.00146c.09815.12126.19562.24121.29441.362l.00057.00065.07258.08871.00271.00325c.14843.181.296.35954.44588.53939l.00053.00049c.09992.12.19891.238.29948.35726l.00152.00179.07428.08805.00116.0013.07379.08724.00291.00342c.10089.119.19907.23421.30059.3527l.00242.00277.07467.08708.00106.00114c.12711.148.25318.29362.38128.44075l.00169.002.0742.085.004.00472.07326.08366.00419.00472c.1012.11556.20458.23291.30639.34781l.0009.00114a85.27231,85.27231,0,0,0,51.87214,27.973,21.33328,21.33328,0,1,0,5.97632-42.24594A42.67042,42.67042,0,0,1,128,85.33333h0a43.00782,43.00782,0,0,1,7.48373.65284,21.3334,21.3334,0,0,0,7.44235-42.0127q-1.07894-.19116-2.1674-.355l-.00128-.00033q-.1119-.01685-.22382-.03336l-.00711-.001-.10443-.01546-.01639-.00228-.10007-.01465-.01893-.00276-.09-.01286-.021-.0031-.08936-.01269-.02626-.00374-.09086-.01286-.03056-.0044-.08916-.01253-.031-.00423-.06881-.0096-.047-.00651-.06818-.00928-.044-.006-.07557-.01026-.049-.00667-.05191-.007-.07046-.00944-.04239-.00553-.08311-.01107-.03885-.00505-.05561-.00732-.03845-.005-.08679-.01123-.0343-.00439-.08959-.01156-.03356-.00423-.11673-.01481-.00488-.00065-.06611-.0083h-.00033l-.12694-.01579-.0144-.00179-.11981-.01465-.00775-.001c-.11128-.01367-.21771-.02636-.32911-.03955l-.00535-.00048c-1.42594-.16814-2.858-.30046-4.30431-.39714l-.00406-.00016c-.113-.00765-.22242-.01465-.33553-.02181l-.00567-.00033-.12414-.00765-.01394-.001-.12622-.00749-.00383-.00033c-.0651-.0039-.13136-.00781-.1965-.01139l-.01905-.00114-.11233-.00635-.01862-.001-.11989-.00668-.01008-.00049-.06453-.00341-.01622-.001-.10951-.0057-.03207-.00162-.08958-.00456-.03919-.002-.06134-.0031-.06509-.00325-.05617-.00261-.04294-.00211-.08256-.00375-.04218-.002-.08026-.00374-.04465-.002-.056-.00244-.07034-.00309-.05566-.00228-.04271-.00179-.08-.00342-.04776-.00195-.05586-.00212-.07-.00276-.04756-.00179-.079-.00309-.04731-.0018-.05228-.00179-.06888-.00244-.05746-.00211-.04369-.00147-.0795-.0026-.04752-.00163-.082-.0026-.03638-.00114-.06747-.00212-.048-.00146-.0741-.00228-.0377-.001-.08594-.00244-.03954-.00114-.08612-.00228-.03016-.00081-.07891-.002-.02856-.00081-.09195-.00211-.03292-.00082-.09047-.00211-.03448-.00066-.08349-.00179-.03022-.00065-.08584-.00162-.02474-.00049-.09757-.002-.02586-.00032-.09829-.00179-.02193-.00033-.09762-.00146-.0093-.00016-.10481-.00163-.01953-.00017-.10221-.00146-.02082-.00016-.10146-.00114-.01916-.00033-.09632-.001-.01282-.00017-.10209-.00081-.02337-.00016-.10235-.00082-.0167-.00016-.10716-.00065h-.00852l-.10252-.00049-.01532-.00016-.10445-.00033h-.019l-.10387-.00016-.01661-.00016Z" style="fill:#5cbeff"/><path d="M128,21.33333h-.08546l-.05435.00017h-.03071l-.08113.00016h-.0035l-.05068.00016h-.03684l-.03458.00016-.05154.00017-.0262.00016-.0605.00033H127.459l-.05864.00032-.03469.00033-.05113.00016-.03613.00032-.04945.00033-.03287.00016-.05329.00049-.03732.00033-.04637.00032-.0406.00033-.04586.00049-.038.00032-.04832.00049-.0327.00033-.05312.00065-.034.00032-.05158.00065-.03292.00033-.05176.00065-.03807.00049-.04738.00065-.03661.00049-.04867.00065-.03888.00065-.04621.00065-.038.00049-.04755.00081-.03966.00065-.04569.00065-.03639.00066-.05094.00081-.03375.00065-.05139.001-.03293.00049-.05145.001-.04.00082-.04316.00081-.04089.00081-.0462.001-.038.00081-.04788.001-.03531.00065-.05045.00114-.036.00081-.05.00114-.033.00082-.05226.00114-.03476.00081-.05035.0013-.03364.00082-.05084.0013-.0375.00081-.04794.0013-.03421.00082-.05243.00146-.03342.001-.05148.0013-.03312.001-.051.00146-.0369.001-.04843.00146-.03427.001-.051.00147-.03654.00114-.04857.00146-.03367.001-.05423.00179-.03085.001-.0554.00179-.02847.00082-.05814.002-.02621.00081-.06209.00212-.02137.00081-.06023.002-.02856.00114-.05759.002-.025.00081-.05948.00228-.02749.001-.05965.00211-.02329.001-.05979.00212-.02774.00114-.0562.00211-.02856.00114-.05385.00212-.0325.0013-.05788.00228-.02406.001-.0603.00245-.02643.00114-.05713.00227-.02781.00114-.05634.00245-.029.0013-.06478.00276-.0174.00066-.06424.00292-.02271.001-.06454.00293-.01937.00081-.06483.00293-.02068.001-.07861.00358-.00389.00016-.071.00342-.01621.00082-.16444.00781-.00422.00032-.15883.00782-.01249.00065c-.34088.01725-.67991.03613-1.01994.05664H121.489c-.11334.00683-.2236.01367-.33684.02083l-.01338.00082-.07174.00455-.01178.00082-.07165.00455-.01693.00114-.06856.00456-.01473.001-.0681.00439-.0204.00147-.06592.00439-.01473.001-.06884.00472-.0173.00114-.06866.00472-.01555.001-.06445.00456-.02762.002-.05935.00407-.02139.00163-.06106.00423-.025.00179-.063.00456-.0164.00114-.06565.00472-.02323.00179-.0612.00439-.02332.00179-.05975.0044-.02526.002-.06065.00456-.02407.00179-.05519.00407-.03385.0026-.0526.00407-.02966.00228-.05235.00407-.03267.0026-.0551.00424-.02614.00211-.05539.00423-.0323.00261-.0517.00407-.032.0026-.05146.00423-.03181.00244-.05547.00456-.02768.00228-.05216.00423-.03528.00293-.05024.00423-.03139.00261-.05463.00455-.02721.00228-.06054.00505-.02257.002-.0574.00488-.0291.00245-.05643.00488-.02649.00228-.05708.005-.0269.00228-.05573.00488-.03078.00277-.04838.00423-.03636.00326-.05007.00439-.03276.00293-.05076.00456-.03294.00309-.0506.00456-.03483.00309-.0425.00391-.043.00407-.043.0039-.039.00358-.04582.00424-.03767.00358-.04519.00423-.04014.00374-.03657.00358-.04874.00456-.0336.00326-.04949.00472-.03558.00341-.04659.00456-.041.00391-.04284.00423-.03457.00342-.05072.00488-.0287.00293-.05434.00537-.03225.00309-.04988.00505-.03475.00342-.05048.005-.0183.002-.14973.01513-.00558.00065-.07756.008-.00181.00016q-1.15833.11962-2.3084.26367l-.00073.00017q-3.948.49438-7.80282,1.27311a10.6666,10.6666,0,1,0,4.2161,20.91243A86.10266,86.10266,0,0,1,128,42.66667h0A85.42987,85.42987,0,0,1,213.33335,128c0,13.74593-3.61558,27.35742-10.74623,40.45654a21.33375,21.33375,0,0,0,3.652,25.28467l4.50561,4.5057A8.83642,8.83642,0,1,1,198.249,210.7443l-4.50647-4.50634a21.3308,21.3308,0,0,0-25.284-3.65251,85.27727,85.27727,0,0,1-35.594,10.59684,10.66686,10.66686,0,0,0,.6515,21.31315c.2224,0,.44723-.007.67223-.021a105.923,105.923,0,0,0,41.93168-11.80925l.00389-.00211.15731-.0809.00207-.00114q.23664-.12181.47274-.245l.005-.0026.07618-.03988.003-.00147.07466-.03906.00794-.00423.07281-.03809.00666-.00341c.12736-.0669.25614-.13461.38326-.20183l.011-.00586.06338-.03352.01924-.01026.05783-.0306.027-.01448.05555-.02946.02836-.01514.05147-.02734.03414-.01823.05125-.02735.026-.01383.05731-.0306.01255-.00667.12112-.06494.0275-.01482.04855-.026.03349-.0179.04732-.02555.03882-.02084.04388-.02376.03866-.02083.04423-.02377.04264-.02311.04132-.0223.04108-.02229.04256-.02312.04862-.02636.03386-.0184.08331-.04524h0l4.50645,4.50651a30.16989,30.16989,0,1,0,42.66667-42.66667l-4.50645-4.50651h0A105.46971,105.46971,0,0,0,234.66669,128,106.66711,106.66711,0,0,0,128,21.33333Z" style="fill:#0784ff"/><path d="M384,277.33333a105.47907,105.47907,0,0,0-50.65755,13.34245l-4.50651-4.50651a30.16982,30.16982,0,0,0-42.66537,0h-.0013a30.17139,30.17139,0,0,0,0,42.66667l4.50651,4.50651A105.47907,105.47907,0,0,0,277.33333,384,106.66667,106.66667,0,1,0,384,277.33333Z" style="fill:#ffbe00"/><path d="M382.50391,426.64062A42.99949,42.99949,0,0,1,341.33333,384c0-6.63021,1.81641-13.1901,5.5599-20.0625l6.00651-11.03776,11.04687-6.01172c6.86329-3.73828,13.42318-5.55469,20.05339-5.55469a21.33333,21.33333,0,0,0,0-42.66666c-13.75,0-27.35417,3.61458-40.45833,10.75l-14.01042,7.625L313.75,301.25a8.83884,8.83884,0,0,0-12.50391,12.49609l.00391.00391,15.79167,15.78125-7.625,14.01042c-7.13542,13.10416-10.75,26.70833-10.75,40.45833v.27214c0,.04166.0013.08333.0013.1263v.14453c.0013.04167.0013.082.0013.1237v.01172c0,.04166.0013.07942.0013.12109v.01432c0,.03906.0013.08073.0013.11979v.01563c0,.03906.00131.07943.00131.11979v.01563c.0013.03906.0013.08072.0013.11979l.0013.01432c0,.03906,0,.07943.0013.11849v.01693c.00131.03906.00131.07812.00261.11718v.01823c0,.04037.0013.07683.0013.11589l.0013.01953c0,.03906.0013.07682.0013.11589l.00131.01953c0,.03906.0013.07552.0026.11458v.02083c.0013.03907.0013.07552.0026.11459v.01823c.00131.04036.00261.07682.00261.11588l.0013.01953c.0013.03906.0013.07683.0026.11589v.01693l.00391.11718v.01823l.00391.11719v.01432l.0039.1211v.013l.00391.12109.0013.01172.00391.1237v.00911l.0039.1237.00131.01042.0039.12109v.01042c.0013.03906.00391.08463.00521.12369v.00782c.0013.04166.00391.08073.00521.12239v.013c.0026.04167.00391.07813.00521.1198l.0013.01432.00391.11719.0013.01692c.0013.03907.0039.08073.00521.11979l.0013.013c.0013.03906.0026.07942.00521.11848v.01693c.0026.03906.0039.07813.00651.11719v.01562c.0026.03907.0039.07813.00651.11719v.01693c.0026.03906.0039.07943.00651.11849v.01432c.0026.03906.0039.07813.00651.11589l.0013.02083c.0013.03906.00391.07422.00521.11328a.10539.10539,0,0,1,.0013.02083c.00261.03907.00391.07292.00651.112l.0013.02214c.00261.03906.00391.07422.00651.112l.00131.01953c.0026.03906.0039.07552.00651.11458l.0013.01953c.0026.03907.0039.07422.00651.11329l.0013.01953c.0026.03906.00521.07552.00651.11458l.0013.01823.00782.11589.0013.01692c.0026.03776.00521.07682.00651.11589l.0013.01692.00781.11719.00131.013.00781.11979.0013.01563.00781.11979.0013.00781c.00261.04167.00521.08334.00912.1237v.00912c.0026.04166.00651.08463.00911.1263v.0026c.00391.043.00651.082.00912.1263l.0013.00521c.0026.04427.00651.08594.00911.13021v.0013c.00391.04167.00652.082.01042.1237v.01172c.00391.04167.00651.08073.01042.12109v.01042c.0039.04167.00651.07682.01041.11849l.00131.01693c.0026.03776.00651.07942.00911.11849l.0013.01172c.00261.03906.00651.07942.00912.11718l.0013.01823c.00391.03776.00651.07422.01042.11328l.0013.01953c.00391.03776.00651.07422.01042.112l.0013.02084c.0026.03776.00651.07552.01041.11328l.00131.01823c.0026.03776.00651.07422.01041.11328l.0013.01953c.00391.03906.00652.07552.01042.11328l.0013.01823c.00391.03776.00651.07422.01042.11328l.0026.01953c.00261.03907.00652.07552.01042.11459l.0013.01562.01172.11589.0013.01823c.00391.03776.00782.07552.01042.11328l.0026.01823c.00391.03776.00652.07552.01042.11328l.00261.01953.01171.11458.00131.01433c.0039.03776.00781.07942.01172.11848l.0013.01172c.0039.04167.00781.07943.013.1198v.01041c.00521.03906.00911.082.013.11979l.0013.01563c.00521.04036.00912.07552.013.11719l.0013.01171c.00391.04167.00912.07943.013.1198l.0013.01041c.0039.04037.00911.07943.013.1211l.0013.00781c.00391.03906.00911.08073.013.11849l.0013.013c.00391.03776.00912.082.013.12109l.00131.00651c.0052.04037.00911.082.01432.1237l.0013.00781c.00391.04167.00912.07813.013.1198l.00261.013c.0039.03776.00911.07812.013.11588l.0013.01693c.00521.03776.01042.07812.01432.11588l.0013.01433c.00521.03776.01042.07812.01433.11719l.0026.01432c.00391.03776.00912.07682.013.11458l.00261.01693c.0052.03776.00911.07291.01432.112l.0026.02083c.00391.03906.00912.07292.013.11068l.00261.01953c.00521.03776.00911.07422.01432.112l.00261.01823c.0052.03776.00911.07422.01432.11328l.0026.01823c.00521.03776.00912.07291.01432.11067l.00261.02084.01562.112.00131.01562.01562.11459.00261.01823c.0052.03776.00911.07421.01432.112l.0026.01954.01563.11067.0026.01953.01563.11329.0026.013c.00521.03776.01042.07942.01563.11718l.0013.013c.00651.04037.01172.07813.01692.11849l.00131.00912.01692.11979.00261.01432c.00521.04037.01042.07552.01693.11719l.0013.01042c.00651.04036.01172.07942.01823.11979v.00651c.00651.03776.013.082.01823.11979l.0013.01172c.00651.03776.01172.07682.01693.11458l.0026.013c.00651.04037.01172.07813.01823.1198l.0013.00781c.00521.04036.01172.08073.01823.12109l.0013.00912c.00651.04036.01172.07942.01823.11979l.0013.01041.01823.11589.00261.01563c.00651.03776.01171.07421.01823.112l.0026.01823c.00521.03776.01172.07292.01693.11068l.0039.01823c.00521.03776.01172.07422.01693.112l.00391.01823c.0052.03776.01041.07161.01692.10937l.00391.02084c.00521.03776.01172.07291.01823.11067l.0026.01823c.00651.03776.01172.07422.01823.112l.00261.01693c.00651.03776.013.07292.01823.11068l.0039.01953.01823.10807.00391.02344.01823.10677.0039.02083c.00651.03776.01172.07162.01823.10807l.00391.02084c.00651.03776.01172.07161.01823.10937l.0039.02084c.00521.03515.013.07291.01823.10807l.00391.02083c.00651.03516.013.07422.01953.10938l.0026.01692c.00651.03776.013.07422.02084.112l.0026.01693c.00651.03906.013.07422.02083.11458l.00131.01042c.00781.03906.01432.07682.02083.11719l.0026.01172c.00782.04036.01433.07812.02214.11849l.0013.00781c.00651.04036.01432.08073.02214.11979l.0013.00781c.00651.03907.01562.08334.02214.1224l.02343.12109.0013.01042c.00782.04036.01433.07682.02214.11719l.0026.01172c.00782.03906.013.07291.02084.11328l.0039.01562c.00651.03776.01433.07682.02084.11328l.0039.01433c.00651.03515.01433.07552.02084.10937l.0039.02214c.00651.03515.01433.07291.02084.10677l.0039.02083c.00651.03386.01433.07162.02084.10677l.0052.02214c.00651.03646.013.069.02084.10677l.0039.02083c.00651.03386.01433.069.02084.10417l.00521.026c.00651.03385.01432.069.02083.10286l.00521.02344c.00651.03646.013.069.02083.10547l.00391.02083c.00781.03776.01562.07292.02343.10938l.00261.01823c.00781.03646.01562.07031.02344.10807l.0039.02083c.00781.03646.01432.07032.02214.10677l.0039.02084c.00782.03646.01433.069.02214.10677l.00521.02083c.00781.03646.01432.07032.02213.10808l.00391.01692c.00781.03776.01562.07162.02344.10938l.0039.02083c.00782.03385.01563.07292.02344.10677l.00391.01823.02343.11068.00391.013c.00781.04036.01563.07682.02474.11588l.0013.00912c.00912.03906.01693.07682.026.11588l.00261.013.026.11588.0013.00912c.00912.03906.01823.07682.026.11718l.00261.00912c.00911.03906.01823.07942.02734.11979.00781.04036.01693.07943.026.11849l.00261.01042.02734.11979.0013.00651.02735.11849.0013.00781.02734.11979.00261.00651.026.11328.0039.01693c.00782.03646.01693.07422.026.112l.0026.013c.00912.03646.01823.07422.026.11068l.00391.01692c.00911.03646.01823.07422.02734.112l.00261.013c.00911.03646.01692.07292.026.10938l.00521.01953c.00781.03646.01692.07161.026.10807l.0039.01693c.00782.03646.01693.07031.02605.10807l.0039.01953c.00912.03646.01823.07032.026.10808l.00521.01562c.00781.03646.01693.07162.026.10808l.00521.02083.026.10547.00391.01953c.00911.03646.01823.069.02734.10547l.00521.02083c.00781.03385.01823.07292.026.10677l.00391.01693c.00911.03646.01823.07031.02734.10677l.00521.02213c.00912.03386.01823.07162.02735.10547l.0039.01693.02735.10938.0039.01562.02995.112.0013.00911c.01042.03907.02084.07683.02995.11589l.0026.01042c.01042.03906.02084.07682.03.11588l.00261.00521c.00911.03906.02083.07943.02994.11849l.00261.00781c.01041.03906.02083.07813.03.11589l.0013.00521c.01042.03776.02083.07552.03125.11458l.0026.01172.02995.11068.00391.01562c.00911.03646.01953.07292.02864.10938l.00521.01562c.00912.03646.01953.07422.02865.11068l.0039.013c.01042.03646.01953.07291.02995.10937l.00391.01693c.01041.03646.01953.07031.02995.10677l.0052.01823.02865.10547a.09766.09766,0,0,1,.00521.02083c.00911.03255.01953.069.02864.10287l.00651.02213c.00912.03255.01823.06771.02735.10156l.00781.02344c.00911.03646.01823.06641.02734.10156L301.8151,407c.01042.03646.01823.06641.02865.10286l.00651.02084c.01042.03646.01953.069.02865.10416l.00651.01954c.00911.03645.01953.069.02864.10546l.00651.01954c.01042.03645.01953.0677.02995.10286l.00521.02214c.01042.03255.02083.069.02995.10286l.00651.02083c.00911.03386.01953.07032.02995.10287l.0052.02083c.01042.03386.02084.069.03.10287l.00651.02213c.01042.03386.02084.07031.02995.10287l.00521.01823c.01042.03385.02213.07161.03125.10546l.00651.01954c.00911.03385.02083.07161.02995.10416l.0052.01823.03256.10677.0039.01433c.01042.03645.02214.07291.03256.10937l.0039.01432c.01172.03516.02214.07032.03255.10677l.00391.013c.01042.03516.02214.07162.03255.10678l.00391.01432c.01172.03646.02213.07031.03255.10677l.00521.01432c.01042.03646.02213.07422.03255.10938l.00391.013c.01172.03906.02213.07031.03385.10937l.00521.01433c.01042.03645.02213.07291.03255.10937l.00521.013c.01042.03646.02214.07292.03255.10807l.00521.01563c.01172.03646.02214.07161.03385.10677l.00521.01693c.01042.03515.02214.07031.03255.10547l.00521.01692c.01172.03646.02214.07032.03386.10547l.00521.01823c.01171.03516.02213.06771.03255.10287l.00651.02083c.01172.03516.02213.06641.03385.10286l.00521.01953.03386.10287.00651.01953c.01041.03516.02083.06771.03255.10417l.00651.01692c.01172.03646.02213.069.03385.10417l.00521.01953c.01172.03516.02344.069.03385.10417l.00652.01693c.01041.03515.02213.069.03385.10547l.00521.01692.03515.10417.00651.01953c.01042.03255.02214.069.03386.10156l.00521.01953c.01172.03516.02343.069.03515.10547l.00521.013c.01172.03516.02344.07292.03516.10808l.00521.01432.03645.10807.00391.013.03776.10938.0026.00911.03907.11459.0013.0026c.013.04036.02474.07552.03906.11589l.00261.00651c.01172.03645.026.07812.03776.11328l.0026.00651.03776.11067.00521.01172.03776.11068.00391.00911c.013.03777.02343.07032.03645.10808l.00521.01562c.013.03516.02474.07032.03776.10547l.00521.01563c.01172.03515.02474.069.03646.10416l.00651.01693c.01172.03516.02474.07161.03776.10677l.00391.013c.013.03516.02474.07031.03776.10547l.00521.01693c.013.03515.02474.06771.03645.10286l.00782.01953.03515.099.00782.02344c.013.03516.02343.0651.03645.10026l.00651.01823c.013.03385.02474.06641.03646.10156l.00782.01823c.01171.03516.02473.069.03645.10417l.00651.01432c.01172.03516.02474.07031.03776.10547l.00651.01693c.01172.03385.026.07031.03777.10546l.0052.01042c.01172.03516.026.07292.03907.10807l.0052.01433.03907.10677.0052.01172.03907.10677.00651.01562c.013.03516.026.07162.03906.10547l.00391.01172c.013.03516.02734.07161.04036.10677l.00651.01563c.013.03776.02474.0677.03906.10547l.00391.01171c.01432.03646.02734.07032.04167.10808l.0039.01172c.01433.03645.02735.07161.04167.10937l.0026.00521c.013.03515.02865.07552.04167.11068l.00391.00911c.013.03385.02864.07422.04166.10938l.00261.00651c.01432.03776.02734.07031.04166.10807l.00521.013c.013.03516.02735.07161.04037.10677l.00521.01172c.01432.03776.02734.069.04166.10677l.00521.013c.013.03516.02734.07162.04167.10677l.0039.01172c.01433.03516.02735.07031.04167.10417l.00651.01692c.013.03386.02734.07032.04167.10547l.0039.01172c.013.03386.02865.07031.04167.10417l.00651.01562c.013.03516.02734.069.04037.10417l.00651.01432c.013.03516.026.06641.04036.10157l.00781.01953c.013.03385.026.0664.04037.10026l.00651.01692c.013.03386.026.06511.04036.10026l.00781.01954c.01433.03515.026.0651.04037.09895l.00781.01954c.013.03385.026.0651.04037.099l.00781.01953c.01432.03386.026.06511.04036.099l.00651.01693.04167.10156.00781.01953c.013.03125.02735.06771.04167.099l.00651.01693c.01432.03516.02734.0651.04037.099l.00911.02213.04167.099.0052.013c.01563.03646.02865.069.04428.10547l.0039.01042c.01563.03646.02995.07291.04557.10937l.00261.00521c.01562.03906.02995.07292.04687.112l.00261.00651c.04818.11458.09765.23047.14583.34375l.0013.00261c.01563.03776.03256.07552.04818.112l.0026.00651.04818.112.0013.00521c.01563.03646.03256.07292.04818.10938l.00261.00781c.01562.03646.03124.07161.04687.10807l.00391.00912c.01562.03646.02994.07031.04687.10677l.00391.01172c.01562.03385.03125.07031.04557.10416l.00651.01172c.01432.03386.03125.07162.04557.10547l.00521.01042c.01432.03515.02995.07031.04558.10416l.0052.01433c.01563.03385.02995.0664.04558.10026l.00781.01823c.01432.03385.02864.0664.04427.10026l.00651.01432c.01432.03385.02995.069.04557.10286l.00521.013c.01563.03385.03125.069.04688.10286l.0052.013c.01563.03386.03125.069.04558.10287l.00651.01432c.01562.03385.03255.07031.04687.10417l.00391.00911c.01562.03385.03385.07292.04818.10547l.0052.01042.04818.10546.00391.01042.04817.10547.00521.01172c.01693.03515.03256.069.04818.10547l.00391.00651c.01562.03646.03255.07291.04948.10937l.0026.00521c.01693.03516.03516.07422.05078.11068l.0013.0026c.01823.03776.03516.07422.05209.112l.0013.00391c.05338.11458.10547.22656.16015.34114v.0013c.01693.03516.03386.07162.05079.10678l.0052.01041c.01693.03516.03256.07162.04948.10677l.00391.00651c.01693.03646.03385.07292.05078.10808l.00391.00651c.01692.03646.03385.07161.05078.10807l.0039.00781c.01693.03516.03256.069.04948.10547l.00521.00912c.01563.03385.03386.07161.04948.10546l.00521.00912c.01563.03385.03516.07292.05078.10677l.00391.00651.05078.10547.00521.01042c.01562.03385.03255.0677.04948.10156l.00651.01432c.01692.03386.03255.06771.04948.10026l.00651.01432c.01562.03256.03255.06771.04948.10026l.0052.013c.01693.03255.03386.0677.04948.10026l.00651.01432c.01693.03255.03386.06641.04948.10026l.00782.013c.01562.03385.03255.069.04947.10156l.00521.01042c.01693.03385.03386.07031.05078.10286l.00651.01172c.01563.03255.03386.069.05079.10157l.0052.01171c.01693.03386.03386.069.05078.10157l.00652.013c.01692.03515.03385.0664.05078.10156l.0052.00911c.01693.03646.03386.069.05209.10417l.0039.00781c.01823.03646.03646.07162.05469.10677l.0013.00391c.01823.03776.03646.07162.05469.10938l.00261.0039c.07552.14714.151.29557.22656.44271l.0039.00651c.01954.03776.03516.07031.05469.10807l.00261.00391.05468.10547.00391.00781.05469.10547.0039.00781c.01823.03386.03516.06511.05339.10026l.00651.01433c.01693.03255.03646.0677.05338.10026l.00521.01041c.01693.03255.03516.06641.05209.099l.00781.01432c.01693.03256.03516.06641.05208.099l.00651.013c.01693.03256.03386.0625.05078.09506l.01042.01953c.01693.03255.03386.0638.05078.09635l.00651.013c.01823.03255.03516.06511.05209.09766l.00911.01562c.01693.03255.03516.06641.05339.099l.0039.00912c.01823.03255.03776.069.05469.10156l.00651.01041c.01823.03516.03646.06771.05469.10287l.0039.00651c.01823.03516.03776.069.056.10417l.00391.00651c.01953.03515.03906.07161.05729.10677l.0013.0013c.01953.03646.03907.07031.0586.10807l.0039.00651c.01953.03516.03907.07162.0573.10547l.0013.0013c.02083.03776.03906.07292.05989.10938l.00131.0026.12109.21875.0013.00261c.04037.07291.07943.14453.12109.21745v.0013c.04037.07161.08073.14453.1211.21614l.0039.00651c.02084.03646.03907.069.0586.10547l.0026.00261c.01953.03515.04037.07161.0599.10547l.0026.0052c.02084.03776.03906.07032.0599.10677l.0013.00261c.01953.03515.03906.069.05859.10417l.00521.00781c.01953.03515.03906.06771.0586.10286l.0039.00651.0586.10157.0039.00911c.02084.03385.04037.069.0599.10286l.0026.00521c.01953.03386.03906.06641.0586.10157l.00651.01041c.01823.03125.03906.069.05729.10026l.00521.00651c.01953.03386.03906.06771.05859.10287l.00391.00781c.02083.03385.04036.06771.05989.10156l.00391.00651.05859.10026.00651.01172c.01823.03125.03907.06641.0586.099l.0039.00781c.01953.03256.04037.069.0599.10026l.00521.00912c.01953.03385.03906.06771.05989.10156l.00261.00521c.01953.03385.04036.06771.05989.10156l.00651.00912c.01953.03385.03907.0677.0599.10156l.0013.0039c.02214.03516.04167.06771.0625.10417l.00261.00391c.151.2526.30078.5013.45442.7526.02214.03516.043.07031.06511.10677l.0013.0013c.02213.03516.04167.06771.0638.10417l.0026.00391.0625.10156.00521.00781c.01953.03125.04167.06771.0612.099l.00391.00781c.02083.03386.04166.06641.0625.099l.00521.00912c.02083.03255.04166.0664.0625.10026l.0026.0052c.02083.03256.04167.06641.0625.099l.00651.00912c.01823.03125.04167.06771.0612.099l.0039.00781c.02084.03255.043.06641.06381.10026l.0039.00521c.02214.03515.04037.0651.06381.10156l.0026.00521c.02213.03515.04167.0664.0651.10156l.00261.00391.0651.10286.0013.00261c.02214.03515.043.069.06641.10416l.0013.00261c.02214.03515.04427.0677.06641.10286l.0013.00261c.02214.03515.04427.069.06641.10416l.0013.0013c.181.28256.362.5612.54687.84115l.00131.0026.069.10417c.02343.03516.04557.07031.069.10417l.0013.0013c.02213.03516.04557.069.069.10417v.0013c.02344.03385.04557.06771.069.10156l.0013.00261c.02344.03515.04557.0677.06771.10286l.0026.0026c.02214.03386.04558.06771.069.10287v.0013c.02344.03385.04558.06771.069.10287l.0013.0013c.07031.10416.14062.207.21093.3112v.0013c.02344.03385.04688.06771.07032.10286l.0013.0013c.02344.03386.04687.06771.07031.10287q.63867.93358,1.30208,1.849v.0013c.02474.03385.04818.06771.07292.10156h.0013c.02474.03386.04688.06511.07162.099l.0039.00521c.04948.06771.09636.13281.14584.19922v.0013c.04948.06771.099.13411.14844.20182l.0013.0013q.5957.80861,1.20963,1.60157c.05209.0664.10287.13151.15365.19791l.0013.0013c.05078.06641.10156.13152.15365.19662v.0013c.10416.13151.207.26172.31119.39323v.0013c.10417.13021.20834.26042.3125.39193q.58984.73437,1.194,1.45443l.07942.09505.00261.0026q1.93749,2.30274,4.03125,4.46354v.00131a85.89539,85.89539,0,0,0,18.095,14.25l.00521.0026c.03515.02214.069.04037.10416.0625l.00391.0013c.03646.02084.06771.04037.10417.0612l.0052.00261c.03646.02213.069.04166.10547.0625l.00261.0013.10416.05989.00651.00391c.03646.02214.06771.04036.10417.0612l.00391.0013c.03646.02214.06771.04036.10416.0612l.00651.0039c.03646.02084.06771.03776.10417.0599l.00391.0026c.03515.01954.069.03907.10286.0586l.00912.00521.10156.05859.00651.00391c.03516.01953.069.03906.10417.05859l.00651.00391c.03385.01953.07031.04036.10547.05989.03645.02084.07161.04037.10807.0612l.00521.0026.10547.0599h.0013l.10937.0625c.07422.04036.14714.082.22005.1224l.00131.0013c.29166.16276.58724.32422.8802.48437l.00652.00261c.03515.01953.07031.03776.10546.05729l.00521.0026c.03516.01953.07031.03776.10547.05729l.00651.00391c.03776.01953.069.03646.10547.056l.00521.0026c.03515.01954.069.03776.10417.056l.01041.00521c.03255.01823.07031.03776.10287.05469l.00651.00391c.03255.01822.07161.03776.10416.056l.00912.0039c.03515.01953.069.03646.10417.056l.00651.00261c.03255.01822.069.03776.10156.05468l.013.00651c.03385.01693.069.03646.10156.05339l.00912.00521c.03255.01692.069.03515.10156.05208l.013.00781c.03385.01823.06641.03386.10156.05209l.00651.0039c.03516.01823.069.03646.10417.05469l.01042.00521.10286.05338.00781.00391.10547.05469.00651.0039c.03516.01693.07162.03646.10677.05469l.00261.0013c.03776.01823.07161.03646.10937.056l.00651.00391c.03646.01693.07162.03646.10677.05338l.00261.00131c.03515.01823.07161.03646.10677.05468l.00651.00391c.03776.01823.07031.03516.10807.05339l.00391.0026c.03515.01823.069.03516.10547.05339l.00911.0052c.03646.01693.069.03386.10547.05209l.00781.0039c.03516.01823.06771.03386.10287.05209l.01172.00521c.03255.01692.0664.03385.10026.05078l.01432.00651c.02995.01562.0664.03385.09635.04817l.01823.00912.09636.04818.01692.00911c.03125.01432.06511.03125.09636.04687l.01823.00912c.03385.01693.0625.03125.09635.04687l.01693.00912c.03385.01562.0638.03125.09635.04687l.01953.00912c.03256.01693.0599.02995.09375.04557l.01953.01042c.03386.01562.0625.03.09506.04557l.01953.01042c.03385.01562.0612.03.09505.04557a.08991.08991,0,0,0,.01953.00912c.03255.01692.0612.02994.09505.04687a.08922.08922,0,0,1,.01953.00912c.03125.01432.0625.02994.09375.04557a.16916.16916,0,0,1,.02214.01041c.03125.01433.0612.02865.09245.04428l.02213.01041c.03125.01433.0625.02995.09245.04427l.02214.01042c.03125.01432.0625.02995.09375.04427l.02083.01042c.03125.01432.0638.02995.09375.04427a.14484.14484,0,0,0,.02083.00911c.03125.01563.06381.03125.09506.04558l.01822.00911c.03125.01432.06641.02995.09766.04557l.01823.00782.09245.04427a.11554.11554,0,0,1,.02213.01041l.09115.04167.02213.01042c.02865.01432.0612.02864.09115.04166l.02344.01172.09114.04167a.132.132,0,0,0,.01953.00911l.09376.043.02083.01042.09375.043.02344.01041c.02994.01433.05989.02735.09114.04167a.21358.21358,0,0,0,.02474.01172c.03125.01432.0586.026.08984.04036.00652.00391.01954.00912.02735.013l.08594.03907a.33207.33207,0,0,1,.03125.01432l.08593.03906.03.013c.026.01172.0586.026.08594.03907a.33207.33207,0,0,1,.03125.01432c.02865.013.056.02474.08594.03776a.31209.31209,0,0,1,.02994.01432c.02865.01172.0573.02474.08594.03776a.3324.3324,0,0,1,.03125.01433c.02865.01171.05729.02473.08724.03776a.26275.26275,0,0,0,.02735.013l.08854.03906.02995.013c.02864.013.05729.026.08593.03776a.33345.33345,0,0,0,.03125.01432c.02865.013.05729.02474.08594.03776l.02995.013c.03.013.05859.026.08724.03777.01041.0052.02083.00911.02995.013.02994.013.05859.026.08724.03906a.296.296,0,0,1,.02994.013c.02865.01172.0586.02474.08724.03776l.02995.01172c.03125.01432.056.02474.08854.03906l.02735.01172c.03125.013.05859.026.08984.03906l.026.01042c.03125.01432.0612.026.09245.04036l.02474.01042c.02864.01172.056.02344.08594.03646l.03255.01432c.02734.01172.05469.02344.08073.03386l.03646.01562c.026.01172.05338.02214.07942.03385l.03907.01563c.02343.01042.05078.02214.07552.03255l.04036.01693.07943.03385.03385.01433c.02735.01041.05339.02213.07943.03255l.04036.01693c.026.01171.05339.02213.08073.03385l.02865.01172c.02995.013.056.02344.08594.03515l.03645.01563c.02735.01172.05469.02344.082.03385l.03385.01433c.02734.01041.05469.02213.082.03385.01172.00521.026.01042.03906.01563.026.01041.05469.02213.082.03385l.03515.01432c.02735.01042.05339.02214.08073.03255.01172.00521.026.01042.03906.01563.02735.01172.05209.02214.07943.03255l.04036.01693c.02474.00911.05209.02083.07683.03125.01562.00521.02734.01042.043.01693.02474.00911.05208.02083.07682.03125.01562.0052.026.01041.04036.01562.02474.01042.05339.02083.07813.03125a.421.421,0,0,0,.043.01693l.07552.03125c.01562.00521.02864.01041.04427.01692.02474.00912.04948.01954.07422.02995a.47544.47544,0,0,1,.04557.01823c.02474.00912.05078.01953.07552.02995.01563.00521.02735.01042.04167.01563.02734.01171.04948.01953.07682.02994.01563.00651.03.013.04557.01823l.07162.02865c.01562.00521.03255.013.04818.01823l.05859.02343.0625.02474c.02083.00782.03385.013.05338.01954.02344.00911.04428.01692.06641.026.01693.00651.03255.013.05078.01953.02214.00911.04688.01823.069.02734.01563.00521.03386.013.04948.01823.02214.00912.04818.01953.07162.02734.01432.00652.02994.01172.04427.01823.026.00912.05208.01954.07682.02865.01563.00651.02995.01172.04427.01693.026.01041.04688.01823.07162.02734.01432.00521.03385.013.04948.01823.02473.01042.04687.01823.07291.02865.01432.0052.03125.01171.04688.01692.02474.01042.04948.01953.07552.02865.01432.00651.026.01042.04036.01562.02865.01042.05339.01954.08073.03l.04167.01563c.02474.00911.04687.01823.07291.02734l.04818.01823c.02344.00911.04948.01823.07292.02734l.04818.01823c.02343.00782.04947.01823.07291.026l.04427.01693.08073.03.04167.01432c.02083.00781.04167.01563.0612.02344.02083.00781.03906.01432.05859.02083l.06641.02474.056.02084c.01823.00651.03776.013.05468.01953.02344.00781.04167.01562.06511.02343.01953.00782.03776.013.05859.02084.01953.00781.04427.01562.0638.02344l.05469.01953.056.02083c.02344.00781.04688.01563.069.02474a.34949.34949,0,0,1,.03386.01172c.02734.00911.05859.02083.08724.03125a.29562.29562,0,0,0,.03124.01042c.02995.01171.0612.02213.09245.03385l.02735.00911c.03125.01172.06119.02214.09244.03256.00912.0039.02214.00781.03256.01171.02994.01042.06119.02214.09244.03256l.02214.00781c.03255.01172.06771.02344.10026.03516l.01953.00651c.03386.01171.07292.026.10547.03776l.01432.0039c.03516.013.07032.02474.10547.03646l.02084.00781c.03385.01172.07031.02344.10286.03516l.01953.00651c.03516.013.07031.02474.10677.03646l.013.00521c.03516.01172.07292.02474.10938.03646l.01432.0052c.03646.013.07031.02474.10547.03646l.01953.00651c.03646.01172.07162.02474.10807.03646l.01172.00391c.03646.013.07683.026.11328.03776l.01042.0039c.03646.01172.07552.02474.11068.03776l.01432.00391c.03385.01172.07292.02474.10677.03516l.01823.00651.11328.03776.00651.0013c.03906.013.07943.02734.11849.04036l.00521.00131a84.89505,84.89505,0,0,0,23.71354,4.194c.224.00651.44531.01041.668.01041a21.33373,21.33373,0,0,0,.71615-42.65495Z" style="fill:#ffea21"/><path d="M384,277.33333a105.47891,105.47891,0,0,0-50.65751,13.34245l-4.50645-4.50635a30.07413,30.07413,0,0,0-21.3327-8.8361h0a10.66667,10.66667,0,1,0,0,21.33334,8.798,8.798,0,0,1,6.24768,2.58772l4.50647,4.50651a21.33106,21.33106,0,0,0,25.284,3.65235c13.10079-7.131,26.71294-10.74658,40.45846-10.74658h0A85.33374,85.33374,0,0,1,446.8693,441.7a10.66661,10.66661,0,1,0,15.71245,14.43,106.33623,106.33623,0,0,0,26.38-53.03223l.00025-.00147c.06506-.35986.1285-.72151.1899-1.08268l.00081-.00456.01278-.07552.00012-.00048.01253-.07439.00114-.00683.01241-.07373.00016-.00082.01282-.07666.00033-.00195q.09051-.54224.17562-1.0861l.00093-.00618.01176-.07536.00008-.00049c.06022-.387.11853-.776.1746-1.16455l.00179-.01237.01-.06934.00106-.00748.00981-.06853.00187-.013.0096-.06771.00139-.00944.00968-.06836.00167-.0122.00989-.07015.00061-.00423.01053-.07536.00033-.00212.01066-.0765.00025-.00195.01053-.076.00066-.00488q.04272-.30908.08357-.61833l.00106-.00814.00944-.07177.0009-.00668.00956-.07324.00077-.00553.00948-.07292.00086-.00667.00891-.069.00163-.01237.00882-.06869.00118-.00927.00888-.06934.00134-.01042.00891-.07.00114-.009.00854-.0677.002-.01595.00814-.06478.00158-.01254.00843-.0677.00109-.00879c.026-.2085.05111-.41553.07589-.62451v-.00017l.00912-.07715.00028-.00227.00777-.06625.00212-.01806.00716-.06169.002-.01725.00761-.0656.00147-.01285.00789-.06853.00118-.01025.00753-.06575.00207-.0184.00713-.06266.00179-.01611.00712-.063.00219-.01937.00672-.0599.0024-.02164.00651-.0586.00264-.0236.00631-.05729.002-.01855.007-.06348.00053-.005c.01677-.15332.03337-.3081.04952-.46175l.00118-.01123.007-.06771.00134-.01253.00652-.06282.002-.01937.00635-.06169.00191-.01839.0061-.05973.0022-.02165.00614-.06055.002-.02018.00586-.05794.00244-.02442.00574-.05745.00223-.02246.00566-.057.00256-.02571.00546-.0555.00268-.02751.005-.05127.00321-.03337.00472-.04866.0033-.034.00443-.04622.00306-.0319c.00821-.0861.01647-.17351.02449-.25961l.00317-.03385.00489-.05274.00244-.02653.0046-.05029.00313-.034.00407-.04459.00325-.03613.004-.04428.0035-.0389.00427-.04785.00265-.02946.00476-.05371.0026-.02913.00432-.04948.003-.03418.00394-.04541.00338-.03874.00375-.04313.00317-.03711.00386-.04476.00346-.041.00338-.03939.00362-.04281.00334-.03955.00354-.04248.00342-.04085.00272-.03337.00419-.05013.002-.02441.00472-.05778.00032-.00391.01717-.21321.00192-.02409.00386-.04883.00273-.03451.00362-.04638.00264-.03418.00387-.05.00256-.03271.00375-.04883.0024-.03142.0039-.05175.00245-.0319.0035-.04672.00264-.03515.00358-.04834.00252-.034.00342-.04639.00273-.03694.00317-.04379.00326-.04475.0024-.03337.00354-.04932.0026-.03629.00322-.04541.0026-.03662.00293-.04183.003-.04265.0033-.0472.00219-.03206.00367-.05355.00215-.03109.011-.16373.00163-.02474.00394-.05941.002-.03011.00325-.04981.00289-.04443.00244-.03808.00281-.04395.00244-.03809.00265-.042.00276-.04411.00216-.0345.003-.048.00216-.03531.003-.04883.00207-.03369.00293-.04851.002-.03418.00313-.05208.00175-.02979.003-.05126.002-.03418.00276-.0472.00208-.03614.00264-.0459.00212-.03727.00285-.0498.00179-.03207.00289-.05143.00179-.03223.00313-.05712.00138-.02523.00334-.061.00175-.03288.00382-.07177.00228-.043.002-.03825.0026-.05029.00167-.03223.0026-.05046.00159-.03141.00248-.04931.00179-.03532.002-.04086.00216-.04394.00183-.03679.00236-.0485.00154-.03222.0024-.05013.00171-.03565.00228-.0485.00155-.03337.00228-.04883.00166-.03662.00212-.04606.00163-.03646.002-.04459.00187-.04167.00183-.04167.00167-.03841.00216-.05.00142-.0332.00232-.05436.00118-.02848.00244-.05811.00106-.02571.00668-.16521.00134-.03418.002-.05045.00151-.0389.00162-.04167.00155-.04134.00171-.04525.00122-.03353.00183-.04915.00118-.033.00191-.0529.00114-.0319.00167-.04769.00134-.03857.00163-.0472.00118-.03467.00163-.0485.00118-.03516.00159-.048.00122-.03793.00134-.04166.00134-.04248.00135-.04281.00122-.03922.00142-.04655.0011-.0363.00138-.04671.00114-.03858.00106-.03678.00134-.047.0011-.03939.00122-.043.00444-.16472.00114-.04427.001-.03857.0011-.04427.001-.04021.00085-.03418.00126-.05192.00066-.02929.0013-.05469.00069-.03125.00114-.05062.00081-.03662.00106-.04785.00073-.03451.001-.04817.00081-.04069.00082-.03858.00089-.04557.00074-.0376.00085-.04655.00077-.04069.00069-.03776.0009-.05094.00061-.03369.00081-.04769.00061-.03711.00074-.04427.00065-.03988.00077-.05143.00049-.03027.00073-.05241.00049-.03369.00094-.06592.00036-.02735.00094-.07063.00045-.03663.00061-.05078.00032-.0275.00061-.05355.00041-.03792.00053-.04786.00036-.03629.00045-.04525.00037-.0402.0004-.04541.00033-.03939.00037-.04232.00032-.04118.00033-.04459.00028-.03923.00029-.04329.00028-.03988.00025-.04687.0002-.03711.00024-.047.00021-.03532.0002-.05257.00012-.03158.00021-.05143.00012-.03288.00012-.05192.00008-.033.00012-.05175,0-.03207.00009-.0542,0-.0306,0-.08333h0A106.667,106.667,0,0,0,384,277.33333Z" style="fill:#ffa300"/><path d="M190.39323,164.66667,156.138,62.88542a29.68893,29.68893,0,0,0-56.276,0L65.60677,164.66667A19.60866,19.60866,0,0,0,83.62891,192h.0013a19.60733,19.60733,0,0,0,18.02213-11.88411l2.83985-9.44922h47.01562l2.83985,9.44922A19.60733,19.60733,0,0,0,172.36979,192h.0013A19.60866,19.60866,0,0,0,190.39323,164.66667ZM117.3151,128,128,92.444,138.6849,128Z" style="fill:#fff"/><path d="M128,42.66667l-.06835.00016h-.01l-.06454.00016-.01332.00016-.06488.00033h-.00878l-.0639.00065h-.00647l-.06661.00082-.01072.00016-.06479.00081-.01225.00016-.06622.00114h-.00458l-.06441.00131-.00957.00016-.06543.0013-.0109.00033-.06553.00146-.01036.00033-.0674.00179h-.00251l-.06582.002-.01011.00033-.06472.002-.0121.00049-.0649.00211-.00988.00033-.06365.00228-.00506.00016-.06448.0026-.01372.00049-.06292.00261-.01282.00048-.06481.00293-.00777.00033-.06428.00293-.00621.00033-.06459.00309-.01364.00065-.0631.00325-.01207.00066-.06517.00341-.00623.00033-.06338.00358-.00841.00049-.06282.00374-.01609.001-.06123.00374-.01315.00081-.06113.00391-.009.00049-.06129.00407-.01265.00081-.06221.00423-.01459.00114-.06237.0044-.01106.00081-.06022.0044-.00772.00065-.06219.00472-.01614.00114-.059.00472-.01724.0013-.06175.005-.00852.00066-.0598.005-.0107.001-.06331.00537-.0126.00114-.06264.00553-.01293.00114-.06526.00586-.0007.00016-.067.00619-.00885.00081-.06332.00619-.0138.0013-.06086.006-.0151.00147-.05984.006-.00464.00049-.0637.00667-.01382.00146-.06068.00635-.0154.00163-.061.00667-.01173.0013-.05854.00652-.00872.001-.06277.00716-.01353.00147-.06119.00716-.0146.00163-.0611.00732-.01173.0013-.055.00668-.0135.00162-.05946.00749-.017.00212-.06007.00748-.01259.00163-.0598.00765-.00984.0013-.05921.00782-.013.00162-.06079.00814-.01474.002-.06147.00847-.01065.00146-.0567.00782-.01229.00179-.06006.00846-.01459.00212-.05977.00846-.01557.00228-.061.009-.00918.0013-.05686.00847-.01242.002-.05961.00895-.01636.00244-.05831.00895-.0167.00261-.05465.00862-.01743.00277-.05.00781-.01823.00293-.05709.00928-.01741.00277-.05779.00944-.016.00276-.05287.00879-.01472.00244-.05434.00912-.01824.00309-.05731.00993-.01637.00277-.0588.01025-.01434.00244-.05255.00928-.01268.00228-.05866.01058-.01713.00309-.05812.01058-.01434.0026-.06131.01123-.00776.00147-.057.01058-.01271.00244-.05819.01107-.01737.00325-.05737.01091-.01591.00309-.05454.01058-.01377.00277-.05449.01074-.01617.00325-.05568.01107-.01966.00391-.05651.01139-.01427.00293-.05172.01058-.01325.00277-.05837.012-.0152.00309-.05727.01205-.01775.00374-.05748.01221-.01215.0026-.05248.01123-.01421.0031-.05638.0122-.01863.00423-.0553.01205-.01855.00407-.053.01188-.01552.00342-.05019.01139-.01684.00374-.056.0127-.018.00423-.056.01286-.01592.00374-.05216.012-.01467.00341-.05264.01237-.01892.00456-.05449.013-.01929.00456-.05365.01286-.01916.00472-.04678.01139-.01382.00326-.05637.01383-.01792.00456-.05565.01367-.01662.00423-.05471.01367-.01638.00424-.049.01237-.01586.00406-.05562.01416-.018.00472-.05494.01417-.01769.00455-.0486.0127-.02.00537-.0478.01253-.01841.00488-.05418.01449-.01824.00488-.0554.01481-.016.0044-.04832.01318-.01641.0044-.05476.01513-.01554.00423-.05536.0153-.01795.005-.05608.01563-.01267.00358-.04751.01334-.01761.005-.05439.01546-.01758.005-.05361.01546-.01977.00569-.05158.015-.0142.00407-.0497.01465-.0175.005-.05336.01579-.01859.00553-.05433.01628-.01624.00488-.0484.01449-.01836.00553-.04886.01481-.01826.00554-.05414.0166-.01743.00537-.05486.01693-.015.00472-.04821.015-.0141.00439-.05435.01709-.01817.0057-.05438.01725-.01563.005-.05636.0179-.01165.00375-.04992.01611-.0145.00472-.05345.01725-.01951.00651-.05368.01758-.01425.00456-.05283.01758-.01428.00472-.05092.01692-.01542.005-.05348.01807-.01907.00634-.05316.01807-.01514.005-.04938.01692-.011.00375-.056.0192-.01582.00554-.05308.01839-.01849.00634-.05429.01905-.01149.0039-.0515.01823-.01146.00391-.05728.02034-.01325.00472-.05533.01986-.01555.00554-.0565.02034-.007.0026-.05189.01872-.01533.00554-.05367.01969-.01674.00618-.05331.01954-.0163.006-.05.01872-.01059.0039-.05444.02035-.01461.00537-.05489.02067-.01408.00537-.05642.02148-.01037.00391-.05279.02018-.00941.00358-.05565.02132-.0151.00586-.054.021-.01561.006-.05462.02132-.011.0044-.05015.01969-.01278.00505-.05355.02116-.01671.00667-.05389.02148-.01323.00521-.05352.02149-.00931.0039-.054.02181-.0117.00472-.05469.0223-.01552.00635-.05331.02181-.015.00618-.04577.01888-.01656.00684-.05136.02132-.01426.006-.05375.02246-.015.00635-.05432.023-.01135.00472-.04878.02067-.01234.00521-.05505.0236-.013.00553-.0551.02377-.01193.005-.057.02474-.00674.00293-.0509.02214-.0145.00635-.053.02327-.01524.00667-.05281.02328-.01409.00635-.0522.02311-.00492.00228-.05473.02441-.01534.00684-.05192.02343-.01572.007-.053.02409-.01223.00554-.04886.02229-.01087.00489-.053.02441-.01588.00732-.05226.02409-.01384.00635-.05445.02539-.00875.00407-.05029.02344-.01136.00537-.05276.02474-.01533.00732-.053.02507-.01206.00569-.05341.0254-.00784.00374-.0532.02555-.01121.00537-.05316.02572-.01455.007-.05421.0262-.008.00391-.0528.02588-.00784.00374-.05435.02669-.01281.00635-.052.02572-.01519.00748-.05266.02621-.00982.00488-.04933.02474-.01111.00554-.05188.026-.01549.00781-.04993.02539-.01753.00879-.04753.02425-.01273.00651-.04781.02458-.01214.00618-.05144.02653-.01567.008-.05025.026-.01508.008-.04626.02409-.01275.00668-.04922.02571-.01384.00733-.05145.02718-.01418.00748-.05066.02686-.01463.00781-.04506.02409-.01038.00554-.05236.028-.01346.00732-.05188.028-.012.00651-.05346.029-.00916.005-.04884.02669-.01027.00553-.05146.02832-.01506.0083-.05.02767-.014.00765-.04679.026-.01376.00765-.04546.02539-.01508.00847-.04886.02734-.016.00912-.04912.02767-.01422.00813-.04357.02474-.01362.00765-.04918.02816-.01369.00781-.049.02816-.01626.00944-.04963.02865-.01106.00634-.04316.02507-.01463.00846-.04871.02849-.01511.00879-.04875.02864-.01518.009-.0477.02816-.01215.00732-.04413.026-.01448.00862-.04859.02914-.015.00895-.04929.02962-.01351.00814-.04353.0262-.01563.00944-.042.02556-.01853.01123-.04518.0275-.01842.01123-.04609.02832-.01512.00928-.04031.0249-.01594.00977-.04407.02734-.01885.01172-.04538.02832-.01675.01042-.04509.02832-.01558.00977-.03967.02506-.01486.00928-.04488.02848-.02013.0127-.0435.02767-.01861.01188-.03645.02343-.02492.016-.03483.02246-.01936.01237-.04294.02783-.02081.01351-.04243.0275-.01989.013-.03153.02067-.02628.01709-.03544.02328-.02024.01335-.04151.0275-.02152.01416-.03768.02507-.02342.01562-.031.02067-.02868.01905-.03313.02229-.02226.015-.03922.02637-.0244.0166-.02986.02018-.02961.02018-.02733.01856-.032.02181-.03.0205-.02536.01742-.02583.0179-.03826.02637-.02033.014-.03953.02734-.02354.01644-.035.02441-.02636.0184-.02746.0192-.02112.015-.04239.02978-.01709.01205-.04577.03238-.01622.01156-.02921.02067-.01007.00733-.05306.03776-.014.01009-.049.03532-.01477.01058-.04892.03531-.01358.00977-.02952.02148-.01781.013-.04452.03238-.01387.0101-.05065.03727-.0114.0083-.09448.06982-.00247.00179-.05984.0446-.00891.00651-.05756.04313-.00514.00391c-.05346.04-.10731.08073-.1605.12125l-.00371.00277q-.80073.60962-1.55981,1.27311A10.6667,10.6667,0,1,0,122.496,66.06852,8.361,8.361,0,0,1,128,64h0a8.34891,8.34891,0,0,1,7.91915,5.69027l32.038,95.19384a10.66673,10.66673,0,0,0,20.22643-6.78287L159.52319,72.94352l-.00457-.01351-.02219-.06591-.01062-.03158-.22919-.681-.03278-.09749-.02677-.07943-.00835-.0249L159.177,71.915l-.01564-.04639-.02323-.069-.001-.00293-.0841-.24983-.0022-.00652-.02286-.068-.012-.03564-.0186-.05534-.00334-.00993-.02584-.07666-.01092-.03255-.00508-.015-.0204-.06071-.01133-.03369-.02277-.06754-.001-.0031-.01957-.0581-.01421-.04232-.09478-.28157-.02033-.06039-.03621-.10758-.02718-.08073-.01957-.05811-.048-.14258-.06558-.19482-.01629-.0485-.03951-.11735-.0047-.014-.03917-.11637-.01668-.04948-.08871-.26368-.01009-.02994-.04019-.11947-.01423-.04215-.00927-.02767-.04437-.13184-.00248-.00732-.0148-.044-.01352-.0402-.00981-.02914-.038-.11295-.01426-.04232-.085-.25244-.01-.02979-.175-.51985-.01074-.0319-.08327-.2474-.00116-.00342-.08387-.24918-.00619-.01839-.0808-.24008-.003-.00895-.07332-.21777-.03519-.10466-.00929-.0275-.00662-.0197c-.84921-2.52327-1.33386-3.96338-1.33386-3.96338h0A29.68839,29.68839,0,0,0,128,42.66667Z" style="fill:#eff2ff"/><path d="M320,341.33331v0a21.33331,21.33331,0,0,0,21.33331,21.33332h35.556L331.37783,396.8A28.44436,28.44436,0,0,0,320,419.55558v0A28.44437,28.44437,0,0,0,348.44437,448h78.22232A21.33331,21.33331,0,0,0,448,426.66669v0a21.33331,21.33331,0,0,0-21.33331-21.33332h-32l42.5183-34.01464A28.81663,28.81663,0,0,0,448,348.81668v-.00005A28.81664,28.81664,0,0,0,419.18337,320H341.33331A21.33331,21.33331,0,0,0,320,341.33331Z" style="fill:#fff"/><path d="M419.18335,320h-77.85a10.66667,10.66667,0,0,0,0,21.33333h77.85A7.4832,7.4832,0,0,1,423.85811,354.66L381.33972,388.6748a21.33336,21.33336,0,0,0,13.327,37.99187H410.9696a10.66667,10.66667,0,0,0,0-21.33334H394.66667s15.0758-12.06071,27.27335-21.81868l.03-.02409.02246-.0179.04049-.03239.032-.02556.016-.01285.16606-.13282.01493-.01188q.13446-.10767.26839-.21468l.26-.208h0l.11357-.09082.01973-.01579.02462-.01969.03451-.02767.2148-.17187.015-.01189.16386-.13118.01888-.01514.02938-.02343.02055-.01644.0402-.03223.02722-.02165.09274-.07422.02925-.02343.01709-.01367.08032-.0643.05835-.04671h0l.10686-.08545.07369-.05892.07719-.06168.04475-.03581.07536-.06038.19511-.15609.05046-.04037.26347-.21077.12406-.09928h0l.441-.35271.1724-.138.03007-.02409.015-.01188.10339-.08284.00753-.006.09705-.07764.02522-.02018.028-.0223.07922-.06348.26917-.21533.02775-.02214.65954-.52766h0l.54016-.43213.02678-.02132.06417-.05144.096-.07682,1.40239-1.12191h0l.03609-.02881.03463-.02767.1558-.12467h0l.26148-.20915.07417-.0594.06161-.04932.04915-.03923.04907-.03922.11723-.09391.04138-.033.01823-.01465.09091-.07259h0l.03625-.02914.12032-.09619.13155-.10531h0l.07137-.057h0l.16549-.13249h0l.03528-.02816.10543-.08431.04663-.03743.07556-.06039.04826-.03857.1993-.1595.21574-.17253.0203-.01628.036-.02881h0l.08407-.06722.012-.0096.03825-.0306h0l.14416-.11539.02576-.02051.02934-.0236h0l.41186-.32943h0l.04265-.03418h0l.02836-.02262.02018-.01612.258-.20638.04-.03206.031-.02474h0l.053-.04248.01762-.01416.29553-.23633.14254-.11409.44136-.353h0l.03772-.03027h0l.10917-.08724.00619-.00505.02706-.02165.02083-.0166.00834-.00667.027-.02165.02454-.01953.04122-.033.09838-.07878.01119-.00895.16891-.13509.00883-.007.0308-.02474h0l.03508-.028h0l.11454-.09164.01261-.01009.12818-.10254.00663-.00537.02527-.02018.0098-.00781.04737-.03793.02775-.02213.01933-.01546h0l.131-.10482.042-.03369.118-.0944.0315-.02523.05468-.04362.02946-.0236.02084-.01677.007-.00553.02763-.02214.04574-.03645.04537-.0363h0l.10429-.0835.01473-.01171.25744-.20606h0l.08256-.06608.03614-.02881.07137-.05713h0l.20617-.16487h0l.07426-.05941h0l.2723-.21794.02946-.0236.03992-.0319.08825-.07064.01478-.01171.02974-.02377.01351-.0109.00675-.00537.08537-.06836h0l.10742-.08594.01351-.01074.01489-.01188.00517-.00424.16008-.12793.02026-.01627.01318-.01058.00472-.00374.09888-.07911h0l.03634-.02913.00883-.007.00809-.00651h0l.04375-.035h0l.04427-.03532.00525-.00423.06665-.05339.0118-.00944.00626-.005.00924-.00732.0068-.00537.011-.00895.00643-.00505.06511-.05208.00223-.00179.00269-.00212.01009-.00814.00265-.00211.00435-.00342h0l.007-.0057.01456-.01155.01547-.01237.00553-.0044.00887-.00716.00049-.00032.00248-.00212h0l.00252-.002h0l.00436-.00342h0l.00146-.0013.00627-.00489A28.8167,28.8167,0,0,0,419.18335,320Z" style="fill:#eff2ff"/><rect x="106.66667" y="128" width="42.66667" height="21.33333" rx="10.66666" ry="10.66666" style="fill:#eff2ff"/></g></svg>