<svg xmlns="http://www.w3.org/2000/svg" width="128" height="128" viewBox="0 0 128 128">
  <title>PATIENT</title>
  <g>
    <path d="M74.593,41.39h3.036a4,4,0,0,1,4,4v1.6A5,5,0,0,1,77.966,51.8l-5,1.387H32.521l-5-1.387a5,5,0,0,1-3.663-4.818v-1.6a4,4,0,0,1,4-4H74.593Z" fill="#ffbd86"/>
    <path d="M67.044,28.7a34.077,34.077,0,0,1-14.3,2.887,34.077,34.077,0,0,1-14.3-2.887C37.346,38.878,30.9,41.39,30.9,41.39,30.9,56.4,37.7,64.906,43.708,69.5a14.912,14.912,0,0,0,18.072,0c6.013-4.592,12.813-13.1,12.813-28.108C74.593,41.39,68.142,38.878,67.044,28.7Z" fill="#fed2a4"/>
    <path d="M99.181,121.693V87.042a13,13,0,0,0-9.525-12.527L64.2,67.452H41.287L15.831,74.515A13,13,0,0,0,6.307,87.042v34.651Z" fill="#fee45a"/>
    <path d="M77.629,41.39V27.963c0-9.337-3.439-14.3-17.228-16.537A143.77,143.77,0,0,1,38.31,6.307c-3.539,3.954-1.991,9.325-1.991,9.325s-8.46,1.257-8.46,11.909V41.39H30.9s6.451-2.512,7.549-12.69a34.077,34.077,0,0,0,14.3,2.887,34.077,34.077,0,0,0,14.3-2.887c1.1,10.178,7.549,12.69,7.549,12.69Z" fill="#9b8e99"/>
    <path d="M72.97,53.19A31.6,31.6,0,0,1,61.78,69.5a14.927,14.927,0,0,1-18.07,0A31.6,31.6,0,0,1,32.52,53.19a49.5,49.5,0,0,1,40.45,0Z" fill="#9cf8d2"/>
    <rect x="106.724" y="46.666" width="7.425" height="7.063" fill="#c8effe"/>
    <path d="M110.437,6.307a19.208,19.208,0,0,0-9.245,2.421A3.958,3.958,0,0,0,99.181,12.2V35.965a8,8,0,0,0,2.43,5.743l5.113,4.958h7.426l5.112-4.958a8,8,0,0,0,2.431-5.743V12.2a3.958,3.958,0,0,0-2.011-3.471A19.211,19.211,0,0,0,110.437,6.307Z" fill="#dff6fd"/>
    <rect x="99.181" y="20.092" width="22.512" height="12.788" fill="#99e6fc"/>
    <g>
      <path d="M6.307,110.58a1.751,1.751,0,0,0-1.75,1.75v9.363a1.75,1.75,0,0,0,3.5,0V112.33A1.751,1.751,0,0,0,6.307,110.58Z"/>
      <path d="M6.307,96.844a1.751,1.751,0,0,0-1.75,1.75v4.5a1.75,1.75,0,0,0,3.5,0v-4.5A1.751,1.751,0,0,0,6.307,96.844Z"/>
      <path d="M23.859,98.33a1.751,1.751,0,0,0-1.75,1.75v21.613a1.75,1.75,0,0,0,3.5,0V100.08A1.751,1.751,0,0,0,23.859,98.33Z"/>
      <path d="M81.629,98.33a1.751,1.751,0,0,0-1.75,1.75v21.613a1.75,1.75,0,0,0,3.5,0V100.08A1.751,1.751,0,0,0,81.629,98.33Z"/>
      <path d="M46.465,40.494a3.655,3.655,0,0,1-3.8.013,1.75,1.75,0,1,0-2.04,2.844,7.124,7.124,0,0,0,7.857,0,1.74,1.74,0,0,0,.406-2.416A1.761,1.761,0,0,0,46.465,40.494Z"/>
      <path d="M62.837,40.494a3.655,3.655,0,0,1-3.8.013A1.75,1.75,0,0,0,57,43.351a7.126,7.126,0,0,0,7.858,0,1.74,1.74,0,0,0,.405-2.416A1.76,1.76,0,0,0,62.837,40.494Z"/>
      <path d="M120.531,7.2a20.61,20.61,0,0,0-20.188,0,5.7,5.7,0,0,0-2.912,5V23.518a1.75,1.75,0,0,0,3.5,0V21.842h19.012v9.289H99.181a1.75,1.75,0,0,0-1.75,1.75v3.084a9.8,9.8,0,0,0,2.962,7l4.581,4.443V53.73a1.751,1.751,0,0,0,1.75,1.75h1.963v39.6a3.254,3.254,0,0,1-3.25,3.25h-4.506V87.042A14.793,14.793,0,0,0,90.124,72.828l-22.6-6.271A32.845,32.845,0,0,0,70.9,62.052l.015-.025a34.194,34.194,0,0,0,3.431-7.4l4.093-1.135a6.771,6.771,0,0,0,4.945-6.505v-1.6a5.758,5.758,0,0,0-4-5.475V27.962c0-11.1-5.068-16.052-18.7-18.264a143.876,143.876,0,0,1-21.8-5.044,1.754,1.754,0,0,0-1.88.486,11.768,11.768,0,0,0-2.689,9.212c-3.522,1.266-8.207,5.029-8.207,13.189V39.915a5.758,5.758,0,0,0-4,5.475v1.6a6.771,6.771,0,0,0,4.946,6.505l4.092,1.135a34.226,34.226,0,0,0,3.482,7.482l.014.02a32.831,32.831,0,0,0,3.325,4.429l-22.6,6.271A14.8,14.8,0,0,0,4.557,87.042v1.9a1.75,1.75,0,0,0,3.5,0v-1.9A11.282,11.282,0,0,1,16.3,76.2l24.538-6.808c.609.535,1.215,1.041,1.809,1.5a16.676,16.676,0,0,0,20.2,0c.594-.454,1.2-.96,1.809-1.5L89.188,76.2a11.283,11.283,0,0,1,8.243,10.841v34.651a1.75,1.75,0,0,0,3.5,0V101.83h4.506a6.758,6.758,0,0,0,6.75-6.75V55.48h1.963a1.751,1.751,0,0,0,1.75-1.75V47.407l4.581-4.443a9.805,9.805,0,0,0,2.962-7V12.2A5.7,5.7,0,0,0,120.531,7.2ZM34.7,54.153a49.969,49.969,0,0,1,18.042-3.53,49.964,49.964,0,0,1,18.042,3.53,30.949,30.949,0,0,1-2.257,4.985,89.4,89.4,0,0,0-15.785-1.347,89.4,89.4,0,0,0-15.785,1.347A30.863,30.863,0,0,1,34.7,54.153Zm37.084-3.377a52.988,52.988,0,0,0-19.042-3.653A52.993,52.993,0,0,0,33.7,50.776a39.888,39.888,0,0,1-1.027-8.348c1.938-1.179,5.771-4.319,7.16-11.259a38.437,38.437,0,0,0,12.909,2.168,38.419,38.419,0,0,0,12.908-2.168c1.39,6.94,5.223,10.08,7.161,11.259A39.821,39.821,0,0,1,71.786,50.776Zm8.093-3.79A3.26,3.26,0,0,1,77.5,50.118l-2.112.586a43.618,43.618,0,0,0,.906-7.564h1.337a2.252,2.252,0,0,1,2.25,2.25Zm-43.3-29.623A1.749,1.749,0,0,0,38,15.148a9.169,9.169,0,0,1,.942-6.793,156.433,156.433,0,0,0,21.179,4.8c13.321,2.162,15.758,6.683,15.758,14.809V39.64h-.9c-1.085-.559-5.341-3.236-6.192-11.127a1.752,1.752,0,0,0-2.532-1.373,32.811,32.811,0,0,1-13.508,2.7,32.829,32.829,0,0,1-13.505-2.695A1.749,1.749,0,0,0,36.7,28.513c-.854,7.911-5.118,10.575-6.195,11.127h-.9v-12.1C29.609,18.6,36.3,17.407,36.576,17.363ZM25.609,46.986v-1.6a2.252,2.252,0,0,1,2.25-2.25H29.2A43.7,43.7,0,0,0,30.1,50.7l-2.112-.586A3.26,3.26,0,0,1,25.609,46.986ZM44.77,68.107a29.848,29.848,0,0,1-5.719-5.772,90.313,90.313,0,0,1,27.385,0,29.845,29.845,0,0,1-5.718,5.772A13.17,13.17,0,0,1,44.77,68.107Zm63.7-16.127V48.416H112.4V51.98Zm11.469-16.015a6.285,6.285,0,0,1-1.9,4.487l-4.6,4.464h-6.008l-4.6-4.464a6.285,6.285,0,0,1-1.9-4.487V34.631h19.012ZM100.931,18.342V12.2a2.2,2.2,0,0,1,1.109-1.94,17.111,17.111,0,0,1,16.794,0,2.2,2.2,0,0,1,1.109,1.94v6.143Z"/>
    </g>
  </g>
</svg>
