<svg xmlns="http://www.w3.org/2000/svg" viewBox="0 0 32 32"><defs><style>.cls-1{fill:#30acc2;}.cls-2{fill:#d1e6e9;}.cls-3{fill:#68c7d3;}.cls-4{fill:#a1d8df;}</style></defs><title>Report</title><g id="Report"><rect class="cls-1" x="1" y="3" width="20" height="26" transform="translate(22 32) rotate(-180)"/><rect class="cls-2" x="3" y="5" width="16" height="22" transform="translate(22 32) rotate(-180)"/><circle class="cls-3" cx="6" cy="19" r="1"/><rect class="cls-3" x="9" y="18" width="8" height="2"/><circle class="cls-3" cx="6" cy="23" r="1"/><rect class="cls-3" x="9" y="22" width="8" height="2"/><rect class="cls-3" x="10" y="9" width="2" height="6"/><rect class="cls-3" x="10" y="9" width="2" height="6" transform="translate(23 1) rotate(90)"/><rect class="cls-4" x="6" y="2" width="10" height="4" transform="translate(22 8) rotate(-180)"/><circle class="cls-4" cx="11" cy="3" r="2"/><circle class="cls-2" cx="11" cy="3" r="1"/><rect class="cls-4" x="16" y="15" width="14" height="16" transform="translate(46 46) rotate(-180)"/><rect class="cls-1" x="15" y="11" width="16" height="4" transform="translate(46 26) rotate(-180)"/><path class="cls-3" d="M16,9H30a0,0,0,0,1,0,0v1a1,1,0,0,1-1,1H17a1,1,0,0,1-1-1V9A0,0,0,0,1,16,9Z" transform="translate(46 20) rotate(-180)"/><rect class="cls-1" x="18" y="17" width="12" height="12" transform="translate(48 46) rotate(-180)"/><rect class="cls-2" x="23" y="19" width="2" height="8" transform="translate(48 46) rotate(-180)"/><rect class="cls-2" x="23" y="19" width="2" height="8" transform="translate(47 -1) rotate(90)"/></g></svg>