<svg xmlns="http://www.w3.org/2000/svg" xmlns:xlink="http://www.w3.org/1999/xlink" version="1.1" width="256" height="256" viewBox="0 0 256 256" xml:space="preserve">

<defs>
</defs>
<g style="stroke: none; stroke-width: 0; stroke-dasharray: none; stroke-linecap: butt; stroke-linejoin: miter; stroke-miterlimit: 10; fill: none; fill-rule: nonzero; opacity: 1;" transform="translate(1.4065934065934016 1.4065934065934016) scale(2.81 2.81)" >
	<path d="M 47.477 29.005 c -0.234 0 -0.471 -0.055 -0.692 -0.17 c -1.664 -0.868 -3.212 -0.868 -4.875 0 c -0.736 0.382 -1.641 0.098 -2.024 -0.636 c -0.383 -0.734 -0.098 -1.641 0.636 -2.024 c 2.538 -1.323 5.113 -1.323 7.65 0 c 0.735 0.383 1.02 1.29 0.637 2.024 C 48.54 28.711 48.018 29.005 47.477 29.005 z" style="stroke: none; stroke-width: 1; stroke-dasharray: none; stroke-linecap: butt; stroke-linejoin: miter; stroke-miterlimit: 10; fill: rgb(0,0,0); fill-rule: nonzero; opacity: 1;" transform=" matrix(1 0 0 1 0 0) " stroke-linecap="round" />
	<path d="M 59.381 29.005 c -0.234 0 -0.471 -0.055 -0.692 -0.17 c -1.663 -0.866 -3.211 -0.867 -4.876 0 c -0.733 0.382 -1.64 0.099 -2.023 -0.636 c -0.383 -0.735 -0.098 -1.641 0.637 -2.024 c 2.538 -1.323 5.113 -1.322 7.649 0 c 0.734 0.383 1.02 1.289 0.637 2.024 C 60.444 28.711 59.922 29.005 59.381 29.005 z" style="stroke: none; stroke-width: 1; stroke-dasharray: none; stroke-linecap: butt; stroke-linejoin: miter; stroke-miterlimit: 10; fill: rgb(0,0,0); fill-rule: nonzero; opacity: 1;" transform=" matrix(1 0 0 1 0 0) " stroke-linecap="round" />
	<path d="M 74.43 57.438 l -8.545 -1.439 c -2.584 -0.435 -4.46 -2.467 -4.46 -4.865 l -0.035 -1.56 c 0.094 -0.09 0.197 -0.166 0.29 -0.258 c 0.942 -0.934 1.806 -1.958 2.565 -3.048 c 0.763 -1.093 1.427 -2.26 1.975 -3.466 c 1.043 -2.291 1.679 -4.729 1.892 -7.273 l 0.73 -11.159 c 0.409 -0.227 0.699 -0.623 0.765 -1.093 c 1.132 -8.081 0.031 -13.906 -3.365 -17.811 C 63.042 1.788 57.902 0 50.527 0 c -5.247 0 -11.799 0.571 -15.92 5.023 c -3.145 3.396 -4.412 8.441 -3.873 15.424 c 0.042 0.552 0.383 1.018 0.861 1.242 l 0.514 7.993 c 0.051 0.794 0.711 1.404 1.496 1.404 c 0.032 0 0.065 -0.001 0.098 -0.003 c 0.827 -0.053 1.454 -0.767 1.401 -1.593 l -0.482 -7.488 c 11.234 0.573 19.784 -2.057 25.539 -7.846 c 0.184 4.283 2.914 6.864 5.747 9.097 l -0.788 12.053 c -0.182 2.173 -0.73 4.277 -1.631 6.255 c -0.473 1.042 -1.046 2.048 -1.703 2.992 c -0.656 0.94 -1.402 1.825 -2.216 2.631 c -1.963 1.942 -4.276 3.403 -6.879 4.344 c -1.541 0.557 -3.241 0.558 -4.786 -0.001 c -2.288 -0.826 -4.368 -2.066 -6.181 -3.688 c -0.617 -0.552 -1.565 -0.498 -2.118 0.118 c -0.247 0.276 -0.354 0.62 -0.363 0.963 l -0.017 0 l -0.054 2.249 c 0 2.364 -1.875 4.396 -4.459 4.831 l -8.545 1.439 c -5.228 0.881 -9.023 5.114 -9.023 10.068 v 18.37 c 0 2.273 1.95 4.123 4.346 4.123 h 57.616 c 2.396 0 4.346 -1.85 4.346 -4.123 v -18.37 C 83.452 62.553 79.657 58.319 74.43 57.438 z M 61.813 6.916 c -4.917 9.067 -14.166 13.01 -28.167 12.025 c -0.241 -5.432 0.797 -9.326 3.161 -11.879 C 39.408 4.252 43.64 3 50.527 3 c 5.221 0 9.097 0.949 11.762 2.891 C 62.119 6.239 61.961 6.581 61.813 6.916 z M 64.478 8.293 c 0.023 -0.044 0.049 -0.09 0.072 -0.134 c 1.982 2.762 2.777 6.807 2.375 12.063 C 63.595 17.463 61.674 14.674 64.478 8.293 z M 42.136 51.918 c 1.478 0.992 3.058 1.82 4.749 2.43 c 1.101 0.398 2.258 0.598 3.414 0.598 s 2.312 -0.199 3.412 -0.597 c 1.699 -0.614 3.279 -1.44 4.753 -2.43 c 0.221 2.192 1.403 4.142 3.177 5.455 c -7.603 6.674 -15.054 6.675 -22.682 -0.001 C 40.739 56.056 41.923 54.102 42.136 51.918 z M 26.665 60.397 l 8.545 -1.439 c 0.289 -0.049 0.571 -0.114 0.848 -0.189 c 4.674 4.38 9.464 6.595 14.252 6.595 c 4.788 0 9.57 -2.216 14.231 -6.595 c 0.277 0.074 0.558 0.14 0.847 0.188 l 8.545 1.439 c 3.778 0.636 6.521 3.626 6.521 7.109 v 6.979 h -6.35 c -1.839 0 -3.614 0.722 -4.871 1.98 c -1.166 1.167 -1.807 2.691 -1.805 4.294 c 0.005 3.281 0.004 5.159 0.002 6.239 H 33.102 c -0.002 -1.079 -0.003 -2.957 0.002 -6.239 c 0.002 -1.603 -0.639 -3.127 -1.804 -4.294 c -1.257 -1.259 -3.033 -1.98 -4.872 -1.98 h -6.284 v -6.979 C 20.144 64.023 22.887 61.033 26.665 60.397 z M 20.144 85.877 v -8.391 h 6.284 c 1.049 0 2.051 0.401 2.749 1.101 c 0.599 0.6 0.928 1.37 0.927 2.17 c -0.004 2.875 -0.005 4.947 -0.002 6.243 H 21.49 C 20.748 87 20.144 86.496 20.144 85.877 z M 79.106 87 h -8.678 c 0.003 -1.296 0.002 -3.368 -0.002 -6.243 c -0.001 -0.8 0.328 -1.57 0.927 -2.17 c 0.699 -0.699 1.701 -1.101 2.749 -1.101 h 6.35 v 8.391 C 80.452 86.496 79.849 87 79.106 87 z" style="stroke: none; stroke-width: 1; stroke-dasharray: none; stroke-linecap: butt; stroke-linejoin: miter; stroke-miterlimit: 10; fill: rgb(0,0,0); fill-rule: nonzero; opacity: 1;" transform=" matrix(1 0 0 1 0 0) " stroke-linecap="round" />
	<path d="M 51.602 44.964 c -0.877 0 -1.712 -0.133 -2.487 -0.257 c -1.155 -0.184 -2.154 -0.344 -2.963 -0.038 l -0.19 0.058 c -1.656 0.389 -3.167 -0.083 -4.138 -1.293 c -1.22 -1.519 -1.405 -4.079 -0.44 -6.087 l 0.065 -0.121 c 1.444 -2.413 4.076 -1.509 5.648 -0.97 c 0.895 0.307 2.006 0.687 2.471 0.431 c 2.435 -1.568 5.925 -3.319 8.276 -2.475 c 0.934 0.335 1.62 1.058 1.933 2.035 l 0.066 0.34 c 0.319 4.077 -1.802 6.809 -6.305 8.12 C 52.876 44.896 52.228 44.964 51.602 44.964 z M 47.228 41.5 c 0.819 0 1.616 0.127 2.359 0.246 c 1.121 0.178 2.18 0.347 3.122 0.08 c 3.054 -0.889 4.276 -2.282 4.158 -4.773 c -0.278 -0.211 -2.208 -0.074 -5.759 2.207 c -1.71 0.96 -3.526 0.335 -4.985 -0.165 c -1.399 -0.48 -1.897 -0.572 -2.074 -0.364 c -0.418 0.948 -0.372 2.222 0.114 2.826 c 0.1 0.125 0.327 0.411 1.036 0.268 C 45.879 41.583 46.561 41.5 47.228 41.5 z" style="stroke: none; stroke-width: 1; stroke-dasharray: none; stroke-linecap: butt; stroke-linejoin: miter; stroke-miterlimit: 10; fill: rgb(0,0,0); fill-rule: nonzero; opacity: 1;" transform=" matrix(1 0 0 1 0 0) " stroke-linecap="round" />
	<path d="M 37.849 42.362 H 8.048 c -0.829 0 -1.5 -0.671 -1.5 -1.5 s 0.671 -1.5 1.5 -1.5 h 29.801 c 0.829 0 1.5 0.671 1.5 1.5 S 38.677 42.362 37.849 42.362 z" style="stroke: none; stroke-width: 1; stroke-dasharray: none; stroke-linecap: butt; stroke-linejoin: miter; stroke-miterlimit: 10; fill: rgb(0,0,0); fill-rule: nonzero; opacity: 1;" transform=" matrix(1 0 0 1 0 0) " stroke-linecap="round" />
	<path d="M 12.809 57.064 c -0.598 0 -1.162 -0.359 -1.396 -0.948 c -0.305 -0.771 0.073 -1.642 0.843 -1.946 l 25.041 -9.906 c 0.771 -0.304 1.642 0.073 1.947 0.843 s -0.073 1.642 -0.843 1.947 L 13.36 56.959 C 13.179 57.031 12.992 57.064 12.809 57.064 z" style="stroke: none; stroke-width: 1; stroke-dasharray: none; stroke-linecap: butt; stroke-linejoin: miter; stroke-miterlimit: 10; fill: rgb(0,0,0); fill-rule: nonzero; opacity: 1;" transform=" matrix(1 0 0 1 0 0) " stroke-linecap="round" />
	<path d="M 37.848 37.554 c -0.183 0 -0.37 -0.034 -0.551 -0.105 l -25.041 -9.893 c -0.771 -0.304 -1.148 -1.176 -0.844 -1.946 c 0.304 -0.77 1.174 -1.148 1.946 -0.844 L 38.4 34.659 c 0.771 0.304 1.148 1.176 0.844 1.946 C 39.011 37.194 38.446 37.554 37.848 37.554 z" style="stroke: none; stroke-width: 1; stroke-dasharray: none; stroke-linecap: butt; stroke-linejoin: miter; stroke-miterlimit: 10; fill: rgb(0,0,0); fill-rule: nonzero; opacity: 1;" transform=" matrix(1 0 0 1 0 0) " stroke-linecap="round" />
	<circle cx="13.611" cy="47.690999999999995" r="2.031" style="stroke: none; stroke-width: 1; stroke-dasharray: none; stroke-linecap: butt; stroke-linejoin: miter; stroke-miterlimit: 10; fill: rgb(0,0,0); fill-rule: nonzero; opacity: 1;" transform="  matrix(1 0 0 1 0 0) "/>
	<circle cx="17.611" cy="34.690999999999995" r="2.031" style="stroke: none; stroke-width: 1; stroke-dasharray: none; stroke-linecap: butt; stroke-linejoin: miter; stroke-miterlimit: 10; fill: rgb(0,0,0); fill-rule: nonzero; opacity: 1;" transform="  matrix(1 0 0 1 0 0) "/>
</g>
</svg>